<svg width="7" height="12" viewBox="0 0 7 12" fill="none" xmlns="http://www.w3.org/2000/svg">
<path d="M6.15188 0.0527076C6.39399 0.0738661 6.63514 0.0988721 6.87629 0.113298C6.97198 0.119069 6.99495 0.153688 6.99495 0.241207C6.99495 0.799983 6.99495 1.35876 6.99495 1.91658C6.99495 2.01275 6.95763 2.03969 6.86576 2.04065C6.4648 2.04065 6.06385 2.02333 5.66289 2.05795C5.55539 2.06563 5.44911 2.08563 5.34614 2.11758C5.05906 2.21375 4.91456 2.42726 4.86767 2.71675C4.84961 2.82382 4.84064 2.93225 4.84087 3.04086C4.84087 3.45152 4.84087 3.8622 4.84087 4.27383C4.84087 4.37 4.87054 4.40173 4.96623 4.40077C5.56815 4.40077 6.17007 4.40077 6.77198 4.40077C6.92509 4.40077 6.92605 4.40077 6.90691 4.55754C6.82749 5.18364 6.7471 5.80781 6.6715 6.43584C6.65906 6.53201 6.60643 6.55124 6.52222 6.55124C6.01313 6.55124 5.50403 6.55124 4.99111 6.55124C4.83896 6.55124 4.83896 6.55124 4.83896 6.70704C4.83896 8.40165 4.83896 10.0963 4.83896 11.7909C4.83896 11.9765 4.83896 11.9774 4.65714 11.9774L2.81694 11.9774C2.63225 11.9774 2.63129 11.9774 2.63129 11.7937L2.63129 6.75609C2.63129 6.55124 2.63129 6.55124 2.42172 6.55124C1.9356 6.55124 1.44947 6.55124 0.963343 6.55124C0.853294 6.55124 0.816932 6.51663 0.817889 6.40506C0.822992 5.78506 0.822992 5.1644 0.817889 4.54311C0.817889 4.43154 0.852338 4.39597 0.963343 4.39693C1.46478 4.39693 1.96622 4.39693 2.46766 4.39693C2.63129 4.39693 2.63129 4.39693 2.63129 4.22766C2.63129 3.78622 2.62651 3.34381 2.63129 2.90141C2.62424 2.45867 2.69886 2.01846 2.85139 1.60305C3.17484 0.788445 3.77771 0.309499 4.61886 0.118111C4.74231 0.0902207 4.86862 0.0729022 4.99398 0.050782L6.15188 0.0527076Z" fill="#063A52"/>
</svg>
