<svg xmlns="http://www.w3.org/2000/svg" xmlns:xlink="http://www.w3.org/1999/xlink" id="Layer_1" x="0px" y="0px" viewBox="0 0 500 492.4" style="enable-background:new 0 0 500 492.4;" xml:space="preserve"><style type="text/css">	.st0{fill:#010101;}</style><g>	<g>		<g>			<path class="st0" d="M493.5,26.9c0-11.3-9.2-20.5-20.5-20.5H26.9c-11.3,0-20.5,9.2-20.5,20.5v329.7h487.1V26.9z M493.5,465.4    V362.9H6.4v102.5c0,11.3,9.2,20.6,20.5,20.6H473C484.4,486,493.5,476.7,493.5,465.4z M473,0c14.8,0,27,12,27,26.9v438.6    c0,14.8-12.1,27-27,27H26.9C12,492.4,0,480.3,0,465.4V26.9C0,12,12,0,26.9,0H473z"></path>		</g>	</g>	<g>		<g>			<g>				<g>					<path class="st0" d="M47.3,408.6h9.5v1.7c0,1.1-0.1,2.3-0.3,3.7c2.7-4.4,6.8-6.7,12.5-6.7c10.1,0,16.7,8.5,16.7,20.5      c0,12.2-7.3,20.2-17.1,20.2c-6,0-9.4-2.3-12.1-6.6c0.2,1.4,0.3,2.7,0.3,3.7v17.5h-9.5V408.6z M66.3,415c-5.8,0-9.8,5-9.8,12.8      c0,7.6,4,12.9,9.8,12.9s9.7-5.1,9.7-12.9C76,420.2,72.3,415,66.3,415z"></path>				</g>				<g>					<path class="st0" d="M88.5,394.9H98v15.4c0,1.2-0.1,2.4-0.3,3.7c2.4-4.4,6.3-6.7,11.7-6.7c8.4,0,13.4,5.8,13.4,15.3v24h-9.5      v-22.6c0-5.6-2.7-9.1-7.2-9.1c-4.7,0-8.1,4.1-8.1,9.4v22.3h-9.5V394.9z"></path>				</g>				<g>					<path class="st0" d="M140.4,423.6l5.5-0.7c3-0.4,4.2-1.5,4.2-3.4c0-2.8-2.4-5-6.2-5c-4.4,0-7.3,2.4-7.6,6.5h-9.8      c0.6-8.1,7.3-13.6,16.9-13.6c11.3,0,16.3,5.9,16.3,16.9v22.4h-8.8v-1.6c0-1,0.2-2.3,0.4-3.7c-2.2,4.1-6.2,6.6-12.5,6.6      c-6.8,0-13.1-4.6-13.1-11.9C125.5,428.2,131.1,424.9,140.4,423.6z M150.3,427.8c-0.8,0.7-2.3,1.2-4.5,1.6l-3.1,0.6      c-4.8,0.9-7.5,2.6-7.5,5.8c0,3.2,2.6,5.2,6,5.2c5.1,0,9.1-3.8,9.1-9.1V427.8z"></path>				</g>				<g>					<path class="st0" d="M164.1,409.9h9.5v2.9c0,1.4-0.1,2.7-0.3,4c2.6-5.4,6.2-8.1,11.2-8.1c0.7,0,1.4,0.1,2,0.2v9.2      c-0.9-0.2-1.7-0.3-2.7-0.3c-6.2,0-10.1,2.2-10.1,10v18.9h-9.5V409.9z"></path>				</g>				<g>					<path class="st0" d="M189.2,408.6h9.5v1.7c0,1.4-0.1,2.7-0.3,3.7c2.2-3.8,5.8-6.7,11-6.7c4.4,0,8.4,3.4,10,7.1      c2.4-4,7.1-7.1,12.3-7.1c7.6,0,13.1,6.2,13.1,15.4v23.9h-9.5v-22.5c0-5.6-2.3-9.2-6.3-9.2c-4.1,0-7.3,3.9-7.3,9.6v22.1h-9.5      v-22.5c0-5.7-2.2-9.2-6.3-9.2c-4.1,0-7.2,3.7-7.2,9.6v22.1h-9.5V408.6z"></path>				</g>				<g>					<path class="st0" d="M257.8,433.6c0.2,4.6,3.1,7.4,8.1,7.4c4.3,0,7-2,7-4.9c0-2.5-1.9-3.7-6.2-4.5l-4.6-0.9      c-8.3-1.6-12.5-5.5-12.5-11.6c0-6.6,6.3-11.6,15.6-11.6c5.1,0,9,1.2,12.1,3.7s4.7,5.6,4.8,9.6h-9.5c-0.3-3.7-3-6.2-7.3-6.2      c-3.7,0-6.2,1.6-6.2,4.1c0,2.3,1.6,3.4,6.3,4.4l4.6,0.9c8.3,1.6,12.4,5.5,12.4,11.6c0,7.3-6.4,12.6-16.1,12.6      c-10.7,0-17.4-5.5-18-14.5H257.8z"></path>				</g>				<g>					<path class="st0" d="M291.8,416.2h-8.7v-7.6h8.7v-13.7h9.5v13.7h9.4v7.6h-9.4v17.2c0,4.1,1.6,6.3,5.6,6.3c1,0,1.9-0.1,2.9-0.2      v7.2c-1,0.3-3.4,0.7-5.6,0.7c-8.3,0-12.4-4.2-12.4-12.6V416.2z"></path>				</g>				<g>					<path class="st0" d="M314,408.6h9.5v2.9c0,1.4-0.1,2.7-0.3,4c2.6-5.4,6.2-8.1,11.2-8.1c0.7,0,1.4,0.1,2,0.2v9.2      c-0.9-0.2-1.7-0.3-2.7-0.3c-6.2,0-10.1,3.4-10.1,11.3v18.9H314V408.6z"></path>				</g>				<g>					<path class="st0" d="M355.7,407.4c11.5,0,19.6,8,19.6,20.4c0,12.5-8.1,20.3-19.6,20.3c-11.5,0-19.5-7.8-19.5-20.3      C336.2,415.5,344.3,407.4,355.7,407.4z M355.7,415c-5.9,0-9.8,4.8-9.8,12.9c0,8,3.8,12.8,9.8,12.8c6,0,9.9-4.8,9.9-12.8      C365.6,419.7,361.6,415,355.7,415z"></path>				</g>				<g>					<path class="st0" d="M378.1,408.6h9.5v1.7c0,1.2-0.1,2.4-0.3,3.7c2.4-4.4,6.3-6.7,11.7-6.7c8.4,0,13.4,5.8,13.4,15.3v24h-9.5      v-22.6c0-5.6-2.7-9.1-7.2-9.1c-4.7,0-8.1,4.1-8.1,9.4v22.3h-9.5V408.6z"></path>				</g>				<g>					<path class="st0" d="M426.3,449.3c0.2,4.6,3.1,7.2,8.2,7.2c5.3,0,9.2-3.1,9.2-8.7v-4.1c0-1.9,0.1-3.4,0.3-4.8      c-2.7,4.2-6.7,6.3-11.9,6.3c-10,0-17.1-7.2-17.1-19c0-11.5,8-19,16.6-19c6.3,0,9.8,2.3,12.3,6.7c-0.2-1.2-0.3-2.4-0.3-3.7v-1.7      h9.5v36.9c0,12.2-7.3,18.5-19,18.5c-11,0-17.6-5.8-17.6-14.7H426.3z M434.5,415c-5.7,0-9.8,4.8-9.8,11.4      c0,6.6,4.1,11.4,9.8,11.4c5.6,0,9.7-4.8,9.7-11.4C444.2,419.7,440.1,415,434.5,415z"></path>				</g>			</g>		</g>		<g>			<g>				<path class="st0" d="M452.2,401v-5.1h-2.1v-1h5.3v1h-2.1v5.1H452.2z M456.4,401v-6.1h1.4l1.6,4.1c0,0,0,0.1,0.1,0.1     c0,0.1,0,0.1,0.1,0.2s0,0.1,0.1,0.2c0,0.1,0,0.1,0.1,0.2c0,0,0-0.1,0-0.1c0,0,0-0.1,0-0.1c0-0.1,0-0.1,0.1-0.2     c0-0.1,0.1-0.1,0.1-0.2l1.6-4.1h1.4v6.1h-1.1v-3.7c0-0.1,0-0.1,0-0.2s0-0.1,0-0.2c0-0.1,0-0.1,0-0.2c0-0.1,0-0.1,0-0.2     c0,0.1-0.1,0.2-0.1,0.2c0,0.1-0.1,0.2-0.1,0.2c0,0.1,0,0.1-0.1,0.2c0,0.1,0,0.1-0.1,0.2l-1.4,3.7h-1l-1.4-3.6     c0-0.1,0-0.1-0.1-0.2c0-0.1-0.1-0.1-0.1-0.2c0-0.1,0-0.1-0.1-0.2c0-0.1-0.1-0.1-0.1-0.2c0,0.1,0,0.1,0,0.2s0,0.1,0,0.2     c0,0.1,0,0.2,0,0.2c0,0.1,0,0.2,0,0.2v3.6H456.4z"></path>			</g>		</g>	</g>	<g>		<path class="st0" d="M143.7,47.2c0,0-81.3-0.1-96.4,0L48,266.6c15.1,0.1,39,0.1,40.5,0c-0.1-10.9,0.1-43.4-0.1-54.8   c0-9.6,7.6-17.6,17.4-18.1c60.5,3.7,95-29.3,105.2-68.1c0.7-2.8-3.1-4.4-4.6-2c-9.5,17.1-36,39.6-60.8,41.5   c-1.6,0.1-2.3-2.1-0.8-2.8c9.9-5.1,18.4-10.9,23.9-21.1c3.5-4.8,0.9-14.1-5.3-9c-9.6,8.6-21.4,13.3-34,16.7   c-6.8,1.8-13.5,3.5-20.4,5c-6.9,1.5-13.3,3.9-19.3,7.6c-3.8,2.3-7.5,5.3-11,8.2c-2,1.6-7.6,8.1-9.8,3.8c-0.7-1.3-0.5-2.9,0.1-4.2   s1.6-2.4,2.6-3.4c3.8-3.9,8.5-7.1,12-11.3c3.4-4,4.4-7.9,4.2-12.9c-0.1-2.9,0-5.9,0-8.8c0-7.7,0-15.4,0-23.1c0-8.2,0-16.4,0-24.6   c3.9,0,54,0,56,0c9.3,0.1,19,2.4,25.7,9.2c9.2,9.4,12.5,28.2,6.3,39.8c-0.5,0.9-0.8,1.9-0.8,2.9c0.2,3.6,3.8,2.9,5.7,1.3   c4.8-3.9,8.6-8.8,12.2-13.7c1.8-2.5,3.6-4.9,5.4-7.3c1.8-2.3,3.7-5.2,6.4-6.4c1.4-0.6,3.2-0.2,4.7,0c1.1,0.2,2.3,0.3,2.6-1.1   C215.1,69.4,183.5,47.2,143.7,47.2"></path>	</g></g></svg>