<svg width="60" height="60" viewBox="0 0 60 60" fill="none" xmlns="http://www.w3.org/2000/svg">
<circle cx="30" cy="30" r="30" fill="#063A52"/>
<path d="M29.6029 50H23.7813L29.6146 35H18.3329C17.2346 35 16.2296 34.4933 15.5746 33.6117C14.9196 32.73 14.7263 31.62 15.0446 30.5683L23.9829 10H38.7746L32.9413 23.3333H41.6096C42.8779 23.3333 43.9929 24 44.5929 25.1183C45.1929 26.2367 45.1329 27.535 44.4313 28.5917L29.6029 50ZM26.2179 48.3333H28.7296L43.0513 27.6567C43.3979 27.1333 43.4296 26.4733 43.1229 25.9067C42.8179 25.3383 42.2529 25 41.6079 25H30.3913L36.2246 11.6667H25.0746L16.6063 31.1433C16.4763 31.595 16.5746 32.165 16.9129 32.62C17.2513 33.0733 17.7679 33.335 18.3346 33.335H32.0513L26.2179 48.3333Z" fill="white"/>
</svg>
