<svg width="60" height="60" viewBox="0 0 60 60" fill="none" xmlns="http://www.w3.org/2000/svg">
<circle cx="30" cy="30" r="30" fill="#063A52"/>
<g clip-path="url(#clip0_650_934)">
<path d="M30 40C25.135 40 21.2733 36.6 21.1117 36.455L22.2217 35.2117C22.2567 35.2433 25.7833 38.3333 30 38.3333C34.2167 38.3333 37.7433 35.2433 37.7783 35.2117L38.8883 36.455C38.7267 36.6 34.865 40 30 40ZM50 30C50 18.9717 41.0283 10 30 10C18.9717 10 10 18.9717 10 30C10 41.0283 18.9717 50 30 50C41.0283 50 50 41.0283 50 30ZM48.3333 30C48.3333 40.1083 40.1083 48.3333 30 48.3333C19.8917 48.3333 11.6667 40.1083 11.6667 30C11.6667 19.8917 19.8917 11.6667 30 11.6667C40.1083 11.6667 48.3333 19.8917 48.3333 30ZM22.5 21.6667C20.115 21.6667 18.3333 25.185 18.3333 28.3333H20C20 25.95 21.3083 23.3333 22.5 23.3333C23.6917 23.3333 25 25.95 25 28.3333H26.6667C26.6667 25.185 24.885 21.6667 22.5 21.6667ZM37.5 21.6667C35.115 21.6667 33.3333 25.185 33.3333 28.3333H35C35 25.95 36.3083 23.3333 37.5 23.3333C38.6917 23.3333 40 25.95 40 28.3333H41.6667C41.6667 25.185 39.885 21.6667 37.5 21.6667Z" fill="white"/>
</g>
<defs>
<clipPath id="clip0_650_934">
<rect width="40" height="40" fill="white" transform="translate(10 10)"/>
</clipPath>
</defs>
</svg>
