<svg width="60" height="60" viewBox="0 0 60 60" fill="none" xmlns="http://www.w3.org/2000/svg">
<circle cx="30" cy="30" r="30" fill="#063A52"/>
<g clip-path="url(#clip0_650_932)">
<path d="M18.8502 13.3933L19.7818 14.7767C18.9335 15.3467 18.1252 15.995 17.3802 16.7017L16.2335 15.4917C17.0468 14.7217 17.9268 14.015 18.8518 13.3917L18.8502 13.3933ZM19.8135 47.2133C20.7735 47.7817 21.7902 48.275 22.8335 48.6767L23.4318 47.12C22.4752 46.7517 21.5435 46.3017 20.6635 45.7783L19.8135 47.2133ZM46.7052 37.565L48.2218 38.2533C48.6835 37.235 49.0618 36.17 49.3452 35.09L47.7335 34.6667C47.4735 35.6567 47.1268 36.6317 46.7052 37.565ZM11.3102 37.13C11.7085 38.1733 12.2002 39.1917 12.7685 40.155L14.2035 39.3067C13.6818 38.4233 13.2318 37.49 12.8668 36.535L11.3085 37.1283L11.3102 37.13ZM21.7835 11.7617L22.4685 13.28C23.4035 12.8583 24.3785 12.515 25.3685 12.2567L24.9485 10.6433C23.8685 10.9233 22.8018 11.3 21.7835 11.76V11.7617ZM11.6735 30.5217L10.0068 30.5667C10.0385 31.6883 10.1635 32.8117 10.3802 33.9017L12.0135 33.5783C11.8152 32.5783 11.7018 31.55 11.6735 30.5217ZM15.9818 41.8167L14.7085 42.8933C15.4302 43.7467 16.2268 44.5467 17.0785 45.2667L18.1552 43.995C17.3735 43.3333 16.6435 42.6 15.9818 41.8167ZM32.5152 48.1617L32.7402 49.8133C33.8502 49.6617 34.9518 49.415 36.0152 49.08L35.5135 47.49C34.5402 47.7983 33.5318 48.0233 32.5152 48.1617ZM38.3602 46.32L39.1218 47.8033C40.1102 47.295 41.0668 46.6967 41.9668 46.0267L40.9702 44.69C40.1435 45.3067 39.2668 45.8533 38.3602 46.32ZM26.0552 49.61C27.1468 49.8283 28.2685 49.9567 29.3885 49.99L29.4385 48.3233C28.4118 48.2933 27.3835 48.1767 26.3818 47.9767L26.0552 49.61ZM43.2702 42.6483L44.4785 43.7967C45.2485 42.9867 45.9568 42.1083 46.5818 41.185L45.2018 40.25C44.6285 41.0983 43.9802 41.905 43.2718 42.6467L43.2702 42.6483ZM15.3318 19L13.9985 17.9983C13.3252 18.895 12.7252 19.8517 12.2152 20.8433L13.6968 21.6067C14.1652 20.6983 14.7152 19.8217 15.3318 19ZM12.5218 24.45L10.9335 23.945C10.5952 25.0083 10.3452 26.11 10.1918 27.2183L11.8418 27.4483C11.9835 26.4317 12.2118 25.4233 12.5218 24.45ZM30.0002 10C29.4135 10 28.8352 10.025 28.2635 10.075L28.4068 11.735C28.9318 11.69 29.4635 11.6667 30.0018 11.6667C40.1102 11.6667 48.3352 19.8917 48.3352 30C48.3352 30.5367 48.3118 31.0683 48.2668 31.595L49.9268 31.7383C49.9752 31.165 50.0018 30.5867 50.0018 30.0017C50.0002 18.9717 41.0285 10 30.0002 10ZM33.2152 30.8333C32.8418 32.2667 31.5485 33.3333 30.0002 33.3333C28.1618 33.3333 26.6668 31.8383 26.6668 30C26.6668 28.4517 27.7335 27.1583 29.1668 26.785V18.3333H30.8335V26.785C31.9985 27.0883 32.9118 28.0017 33.2152 29.1667H40.0002V30.8333H33.2152ZM31.6668 30C31.6668 29.0817 30.9185 28.3333 30.0002 28.3333C29.0818 28.3333 28.3335 29.0817 28.3335 30C28.3335 30.9183 29.0818 31.6667 30.0002 31.6667C30.9185 31.6667 31.6668 30.9183 31.6668 30Z" fill="white"/>
</g>
<defs>
<clipPath id="clip0_650_932">
<rect width="40" height="40" fill="white" transform="translate(10 10)"/>
</clipPath>
</defs>
</svg>
