<svg width="42" height="42" viewBox="0 0 42 42" fill="none" xmlns="http://www.w3.org/2000/svg">
<circle cx="21" cy="21.0001" r="20.7" stroke="#063A52" stroke-width="0.6"/>
<path d="M23.9869 28.3693C24.6162 28.3693 25.1804 28.3693 25.744 28.3693C26.5791 28.3737 27.1965 28.951 27.2916 29.8131C27.3742 30.5618 26.8475 31.2901 26.0893 31.4698C25.9846 31.4919 25.8778 31.5019 25.7709 31.4997C22.7684 31.4997 19.7669 31.4997 16.7664 31.4997C16.3578 31.4995 15.9659 31.3342 15.6769 31.0399C15.3879 30.7456 15.2254 30.3466 15.2251 29.9303C15.2298 29.518 15.3928 29.1239 15.6793 28.8325C15.9657 28.5411 16.3528 28.3755 16.7576 28.3712C17.3344 28.3667 17.9117 28.3712 18.496 28.3508C18.2176 28.1463 17.9455 27.943 17.6884 27.7181C15.4809 25.7849 15.2207 22.297 17.1129 20.0376C17.4669 19.6172 17.8761 19.2486 18.329 18.9423C19.1734 18.3688 19.5838 17.5603 19.58 16.5255C19.5744 15.0912 19.5769 13.6582 19.58 12.2233C19.58 11.3446 20.2262 10.5978 21.0488 10.5105C21.9558 10.415 22.7277 10.977 22.9254 11.8716C22.9503 12.0074 22.9604 12.1457 22.9554 12.2838C22.9554 13.6818 22.9673 15.0797 22.9523 16.4771C22.9404 17.5749 23.3808 18.3822 24.2765 19.0041C26.0311 20.2217 26.8356 21.958 26.6623 24.1015C26.5172 25.9015 25.6289 27.2924 24.1314 28.2711C24.0989 28.2903 24.0688 28.3106 23.9869 28.3693ZM20.2963 15.787C20.2963 16.1221 20.2963 16.4567 20.2963 16.7918C20.2954 17.1565 20.2284 17.5179 20.0986 17.8578C19.8109 18.6485 19.2523 19.1927 18.5911 19.6769C17.0748 20.7882 16.3948 22.3289 16.6257 24.2079C16.9491 26.8445 19.3417 28.6681 21.912 28.3208C24.8232 27.9252 26.6661 24.8559 25.6977 22.0128C25.3343 20.9481 24.6568 20.1427 23.7398 19.5202C22.7496 18.8473 22.2304 17.8986 22.2385 16.6701C22.2423 15.9928 22.2304 15.3161 22.2442 14.6394C22.2492 14.4113 22.1716 14.3527 21.9608 14.3591C21.4967 14.3731 21.0313 14.3718 20.5671 14.3591C20.3676 14.354 20.2856 14.4094 20.2944 14.6273C20.3063 15.0147 20.295 15.4047 20.295 15.787H20.2963ZM21.2696 30.7708H25.5326C25.6114 30.7708 25.6902 30.7708 25.7684 30.767C26.1956 30.7306 26.5022 30.4484 26.5641 30.0425C26.5853 29.8641 26.549 29.6836 26.4606 29.5281C26.3723 29.3726 26.2367 29.2505 26.0743 29.1804C25.9061 29.1185 25.7275 29.0912 25.5488 29.1001C22.6918 29.1001 19.8352 29.1001 16.9791 29.1001C16.8434 29.0996 16.708 29.1133 16.575 29.1409C16.4724 29.1659 16.3757 29.2115 16.2906 29.275C16.2055 29.3386 16.1337 29.4188 16.0794 29.5109C16.0251 29.6031 15.9894 29.7053 15.9744 29.8117C15.9594 29.9181 15.9654 30.0264 15.992 30.1304C16.104 30.5446 16.4067 30.7676 16.8777 30.7676C18.3407 30.7714 19.8042 30.7725 21.2683 30.7708H21.2696ZM21.2446 13.6079C21.5154 13.6079 21.7863 13.6079 22.0578 13.6079C22.1641 13.6079 22.2417 13.5868 22.2373 13.4543C22.2229 12.9904 22.2767 12.5247 22.2054 12.0633C22.1704 11.8346 22.0569 11.6259 21.8851 11.4742C21.7133 11.3226 21.4944 11.2378 21.2671 11.235C21.0404 11.2378 20.8219 11.3221 20.6503 11.4729C20.4786 11.6238 20.3647 11.8315 20.3288 12.0595C20.2575 12.5285 20.3094 13.0019 20.2988 13.4728C20.2988 13.6002 20.3832 13.6053 20.4752 13.6053C20.7304 13.6072 20.9869 13.6079 21.2433 13.6079H21.2446Z" fill="#063A52"/>
</svg>
