<svg width="42" height="42" viewBox="0 0 42 42" fill="none" xmlns="http://www.w3.org/2000/svg">
<circle cx="21" cy="20.9999" r="20.7" stroke="#063A52" stroke-width="0.6"/>
<path d="M17.7439 31.4984C17.2717 31.3591 16.9311 31.0866 16.8267 30.5826C16.8083 30.4827 16.7997 30.3814 16.8009 30.2799C16.8009 27.525 16.8009 24.7707 16.8009 22.0168C16.7938 21.7327 16.8464 21.4503 16.9551 21.1878C17.0638 20.9253 17.2263 20.6884 17.4321 20.4925C17.7107 20.2201 17.9771 19.9355 18.2601 19.6676C18.5432 19.3997 18.4402 19.0621 18.4478 18.7412C18.4478 18.6746 18.3721 18.6731 18.3252 18.6504C18.112 18.5612 17.9311 18.4091 17.8067 18.2143C17.6823 18.0196 17.6202 17.7915 17.6289 17.5606C17.6289 16.9808 17.6289 16.3996 17.6289 15.8183C17.6242 15.6622 17.6517 15.5069 17.7096 15.3618C17.7674 15.2168 17.8545 15.0852 17.9654 14.9752C18.0762 14.8652 18.2085 14.7792 18.3539 14.7224C18.4994 14.6656 18.655 14.6394 18.8111 14.6452C19.023 14.6452 19.2349 14.6346 19.4468 14.6452C19.5982 14.6543 19.627 14.5968 19.6254 14.4575C19.6254 13.672 19.6133 12.8864 19.6254 12.0993C19.6283 11.8835 19.6743 11.6705 19.7605 11.4727C19.8468 11.2749 19.9718 11.0964 20.128 10.9475C20.2842 10.7986 20.4685 10.6824 20.6702 10.6057C20.8719 10.529 21.0869 10.4934 21.3026 10.5009C21.7102 10.5111 22.0988 10.6755 22.3901 10.9609C22.6813 11.2463 22.8536 11.6314 22.8722 12.0387C22.8919 12.8379 22.8828 13.6372 22.8722 14.4364C22.8722 14.5877 22.901 14.6573 23.0721 14.6452C23.29 14.6301 23.5095 14.6452 23.7274 14.6452C24.0256 14.6428 24.3127 14.7584 24.5259 14.9669C24.7392 15.1753 24.8613 15.4596 24.8657 15.7578C24.8793 16.3784 24.8809 17.002 24.8657 17.6226C24.8683 17.8402 24.8051 18.0534 24.6843 18.2344C24.5636 18.4154 24.391 18.5556 24.1891 18.6368C24.143 18.6535 24.1034 18.6846 24.0761 18.7254C24.0489 18.7663 24.0355 18.8148 24.0377 18.8638C24.0071 19.053 24.0284 19.247 24.0993 19.425C24.1702 19.6031 24.2881 19.7586 24.4404 19.8749C24.7019 20.1054 24.9486 20.3521 25.1791 20.6136C25.5141 20.9636 25.6988 21.4309 25.6937 21.9154C25.6937 24.7308 25.6937 27.5462 25.6937 30.3616C25.6958 30.6066 25.6181 30.8457 25.4723 31.0426C25.3264 31.2395 25.1204 31.3836 24.8854 31.4529L24.7522 31.4999L17.7439 31.4984ZM21.2481 22.8009C20.0508 22.8009 18.855 22.8009 17.6592 22.8009C17.4685 22.8009 17.4094 22.8372 17.4109 23.0415C17.42 24.873 17.4109 26.7046 17.4109 28.5361C17.4109 28.8389 17.3565 28.8131 17.697 28.8131H22.2986C22.3667 28.8131 22.4363 28.8131 22.5029 28.8131C22.5456 28.811 22.5883 28.8178 22.6283 28.8329C22.6683 28.848 22.7048 28.8712 22.7355 28.901C22.7661 28.9308 22.7903 28.9666 22.8066 29.0062C22.8228 29.0457 22.8307 29.0883 22.8299 29.131C22.8284 29.1723 22.8185 29.2128 22.8008 29.2501C22.7831 29.2874 22.7579 29.3207 22.7269 29.3479C22.6958 29.3751 22.6595 29.3957 22.6202 29.4084C22.5809 29.4211 22.5395 29.4256 22.4984 29.4216C22.0609 29.4216 21.6234 29.4216 21.186 29.4216C19.9978 29.4216 18.8081 29.4216 17.6198 29.4216C17.4594 29.4216 17.4034 29.4625 17.4155 29.6259C17.4291 29.8303 17.4155 30.0362 17.4155 30.2405C17.4155 30.6946 17.6062 30.8823 18.0664 30.8838H24.4828C24.8839 30.8838 25.0882 30.681 25.0882 30.2783C25.0882 30.0664 25.0776 29.8545 25.0882 29.6441C25.1003 29.4776 25.0565 29.4141 24.8778 29.4231C24.5993 29.4383 24.3178 29.4231 24.0377 29.4231C23.7925 29.4231 23.6548 29.3126 23.6518 29.1204C23.6487 28.9282 23.791 28.8086 24.0453 28.8056C24.3254 28.8056 24.6069 28.7965 24.8854 28.8056C25.0489 28.8056 25.0897 28.7586 25.0882 28.5997C25.0882 26.7278 25.0882 24.8554 25.0882 22.9825C25.0882 22.8311 25.0489 22.7887 24.8945 22.7903C23.6805 22.8039 22.4636 22.8009 21.2481 22.8009ZM21.2481 22.1863H21.7597C22.8056 22.1863 23.8516 22.1863 24.896 22.1863C25.0474 22.1863 25.0882 22.1439 25.0882 21.9926C25.0924 21.7973 25.0562 21.6033 24.9816 21.4228C24.9071 21.2422 24.796 21.0791 24.6553 20.9436C24.4404 20.7332 24.2436 20.5031 24.0151 20.3094C23.5806 19.9416 23.3596 19.4965 23.4323 18.9228C23.452 18.7594 23.3778 18.7336 23.234 18.7352C22.5574 18.7352 21.8808 18.7352 21.2042 18.7352C21.0331 18.7352 20.8621 18.7352 20.6925 18.7352C20.6509 18.7353 20.6098 18.7268 20.5716 18.7103C20.5334 18.6938 20.499 18.6695 20.4706 18.6391C20.4422 18.6088 20.4204 18.5728 20.4065 18.5336C20.3926 18.4944 20.3869 18.4528 20.3898 18.4112C20.3941 18.3323 20.4292 18.2581 20.4874 18.2047C20.5457 18.1512 20.6226 18.1227 20.7016 18.1251C20.7561 18.1251 20.8106 18.1251 20.8651 18.1251H23.6608C24.0241 18.1251 24.2512 17.9299 24.2572 17.5923C24.2663 16.9869 24.2663 16.386 24.2572 15.7896C24.2601 15.7188 24.2481 15.6482 24.2221 15.5823C24.1961 15.5164 24.1566 15.4567 24.1061 15.407C24.0557 15.3573 23.9954 15.3186 23.9291 15.2935C23.8629 15.2684 23.7921 15.2575 23.7214 15.2613C22.0745 15.2613 20.4277 15.2613 18.7808 15.2613C18.7102 15.2575 18.6396 15.2684 18.5734 15.2934C18.5073 15.3184 18.4471 15.3569 18.3967 15.4065C18.3462 15.456 18.3067 15.5156 18.2806 15.5813C18.2545 15.647 18.2423 15.7174 18.245 15.7881C18.2359 16.3935 18.2359 16.9949 18.245 17.5923C18.2431 17.6629 18.2556 17.7331 18.2818 17.7986C18.3081 17.8641 18.3474 17.9236 18.3974 17.9733C18.4475 18.0231 18.5072 18.0621 18.5728 18.0879C18.6385 18.1138 18.7088 18.1259 18.7793 18.1236C18.9428 18.1312 19.1078 18.1236 19.2712 18.1236C19.3092 18.1226 19.3471 18.1293 19.3825 18.1431C19.4179 18.157 19.4501 18.1777 19.4774 18.2043C19.5046 18.2308 19.5262 18.2625 19.541 18.2975C19.5558 18.3326 19.5634 18.3702 19.5634 18.4082C19.5692 18.4476 19.5666 18.4878 19.5555 18.5261C19.5444 18.5643 19.5252 18.5998 19.4992 18.6299C19.4732 18.6601 19.441 18.6843 19.4048 18.7009C19.3686 18.7175 19.3292 18.7261 19.2894 18.7261C19.0548 18.714 19.0548 18.8411 19.0699 19.0016C19.0963 19.2333 19.0633 19.468 18.9741 19.6836C18.8849 19.8991 18.7423 20.0884 18.5598 20.2337C18.304 20.4592 18.0754 20.7151 17.8333 20.9557C17.6988 21.0874 17.5921 21.2447 17.5195 21.4184C17.447 21.5921 17.4101 21.7786 17.4109 21.9668C17.4109 22.1333 17.4458 22.1863 17.6214 22.1863C18.8308 22.1818 20.0402 22.1863 21.2496 22.1863H21.2481ZM22.2637 13.2905C22.2637 12.9015 22.2713 12.511 22.2637 12.122C22.2634 11.9886 22.2365 11.8565 22.1847 11.7336C22.1329 11.6106 22.0573 11.4992 21.9621 11.4057C21.8669 11.3122 21.7541 11.2386 21.6302 11.189C21.5064 11.1394 21.3739 11.1149 21.2405 11.1169C20.9745 11.1185 20.7199 11.2255 20.5326 11.4145C20.3454 11.6034 20.2407 11.859 20.2415 12.125C20.2324 12.9106 20.2415 13.6962 20.2339 14.4818C20.2339 14.6332 20.2899 14.6468 20.4141 14.6452C20.9741 14.6452 21.5341 14.6452 22.0942 14.6452C22.2456 14.6452 22.2728 14.5907 22.2698 14.456C22.2607 14.0685 22.2653 13.6795 22.2653 13.2966L22.2637 13.2905Z" fill="#063A52"/>
<path d="M21.2493 23.5062H23.5455C24.0904 23.5062 24.3765 23.7938 24.378 24.3418C24.3795 24.8897 24.378 25.4225 24.378 25.9614C24.378 26.5002 24.0843 26.7773 23.5667 26.7788H18.9349C18.4172 26.7788 18.125 26.476 18.1235 25.9629C18.1235 25.417 18.1235 24.8706 18.1235 24.3236C18.1235 23.8014 18.4157 23.5077 18.9334 23.5062H21.2493ZM21.2493 24.1223C20.4924 24.1223 19.7356 24.1223 18.9788 24.1223C18.8017 24.1223 18.7351 24.1783 18.7381 24.3569C18.7457 24.8837 18.7457 25.4089 18.7381 25.9357C18.7381 26.1158 18.8047 26.1703 18.9803 26.1703C20.494 26.1642 22.0101 26.1642 23.5288 26.1703C23.7044 26.1703 23.7725 26.1128 23.7695 25.9341C23.7695 25.415 23.7589 24.8958 23.7695 24.3766C23.7695 24.1753 23.7014 24.1193 23.5061 24.1208C22.7523 24.1268 21.9955 24.1223 21.2493 24.1223Z" fill="#063A52"/>
<path d="M21.2391 28.1003H19.683C19.4257 28.1003 19.291 27.9882 19.2955 27.7854C19.3001 27.5826 19.4333 27.4827 19.68 27.4827H22.836C23.0767 27.4827 23.2129 27.5962 23.2129 27.7854C23.2129 27.9746 23.0812 28.0881 22.8375 28.0881C22.2986 28.1018 21.7689 28.1003 21.2391 28.1003Z" fill="#063A52"/>
<path d="M22.9355 16.6811C22.9355 16.5464 22.9279 16.4086 22.9355 16.2739C22.9355 16.1936 22.9674 16.1167 23.0242 16.0599C23.081 16.0031 23.1579 15.9712 23.2382 15.9712C23.3165 15.9711 23.3917 16.0014 23.4481 16.0556C23.5046 16.1097 23.5378 16.1837 23.541 16.2618C23.5516 16.5464 23.5531 16.8325 23.541 17.1186C23.5412 17.1578 23.5335 17.1967 23.5182 17.2329C23.5029 17.2691 23.4804 17.3017 23.4521 17.3289C23.4238 17.3561 23.3902 17.3773 23.3534 17.3911C23.3166 17.4049 23.2774 17.411 23.2382 17.4092C23.1579 17.4092 23.081 17.3773 23.0242 17.3205C22.9674 17.2637 22.9355 17.1867 22.9355 17.1064C22.9279 16.9672 22.9355 16.8249 22.9355 16.6811Z" fill="#063A52"/>
<path d="M20.8967 16.7007C20.8967 16.8369 20.9043 16.9731 20.8967 17.1093C20.8968 17.1507 20.8884 17.1916 20.8721 17.2296C20.8557 17.2675 20.8318 17.3017 20.8018 17.3301C20.7717 17.3585 20.7361 17.3804 20.6973 17.3945C20.6584 17.4086 20.6171 17.4146 20.5759 17.4121C20.4982 17.4082 20.425 17.3746 20.3715 17.3182C20.318 17.2619 20.2881 17.1871 20.2882 17.1093C20.2822 16.8369 20.2822 16.5644 20.2882 16.292C20.2858 16.2127 20.3145 16.1356 20.3683 16.0773C20.4221 16.019 20.4966 15.9841 20.5759 15.9802C20.6171 15.9777 20.6584 15.9837 20.6973 15.9978C20.7361 16.0119 20.7717 16.0338 20.8018 16.0622C20.8318 16.0905 20.8557 16.1247 20.8721 16.1627C20.8884 16.2006 20.8968 16.2416 20.8967 16.2829C20.9043 16.4146 20.8967 16.5569 20.8967 16.7007Z" fill="#063A52"/>
<path d="M22.2161 16.7008C22.2161 16.837 22.2161 16.9732 22.2161 17.108C22.2173 17.1474 22.2106 17.1867 22.1963 17.2235C22.182 17.2603 22.1604 17.2938 22.1329 17.322C22.1053 17.3503 22.0723 17.3727 22.0359 17.388C21.9995 17.4032 21.9604 17.4109 21.921 17.4107C21.8417 17.4127 21.7648 17.3836 21.7067 17.3296C21.6487 17.2755 21.6142 17.2008 21.6106 17.1216C21.5985 16.837 21.5985 16.5494 21.6106 16.2649C21.613 16.1862 21.646 16.1115 21.7025 16.0566C21.759 16.0018 21.8346 15.9712 21.9134 15.9712C21.9548 15.9711 21.9959 15.9796 22.034 15.996C22.072 16.0124 22.1063 16.0365 22.1347 16.0667C22.1631 16.0969 22.185 16.1327 22.199 16.1717C22.213 16.2107 22.2188 16.2522 22.2161 16.2936C22.2207 16.4283 22.2176 16.5646 22.2161 16.7008Z" fill="#063A52"/>
<path d="M19.5737 16.6904C19.5737 16.8342 19.5828 16.9765 19.5737 17.1188C19.5706 17.197 19.5373 17.2709 19.4809 17.3251C19.4244 17.3792 19.3492 17.4095 19.271 17.4094C19.2308 17.4109 19.1908 17.4041 19.1534 17.3894C19.116 17.3747 19.082 17.3524 19.0536 17.324C19.0252 17.2956 19.003 17.2617 18.9883 17.2243C18.9736 17.1868 18.9668 17.1468 18.9682 17.1067C18.9592 16.8281 18.9592 16.5481 18.9682 16.2711C18.9682 16.1908 19.0001 16.1138 19.0569 16.0571C19.1137 16.0003 19.1907 15.9684 19.271 15.9684C19.3492 15.9683 19.4244 15.9986 19.4809 16.0528C19.5373 16.1069 19.5706 16.1809 19.5737 16.259C19.5737 16.4043 19.5737 16.5481 19.5737 16.6904Z" fill="#063A52"/>
</svg>
