<svg width="42" height="42" viewBox="0 0 42 42" fill="none" xmlns="http://www.w3.org/2000/svg">
<path fill-rule="evenodd" clip-rule="evenodd" d="M21.1775 10.4255C21.3388 10.4263 21.4147 10.5362 21.4802 10.6637C22.4983 12.6353 23.1621 14.7702 23.4404 16.971C23.5507 17.8041 23.6032 18.6438 23.5981 19.4842C23.5887 20.4334 23.5076 21.381 23.3553 22.3181C23.418 22.3346 23.4275 22.2784 23.4455 22.2519C24.9054 20.2128 26.8329 18.5519 29.0667 17.4082C29.4628 17.204 29.877 17.0352 30.2828 16.8498C30.4121 16.7905 30.5418 16.7493 30.6671 16.8549C30.7922 16.9604 30.7794 17.0871 30.7462 17.229C30.1901 19.6002 29.1345 21.7253 27.5967 23.6147C27.2615 24.027 26.8932 24.4096 26.5225 24.814C26.6064 24.866 26.6729 24.8335 26.7395 24.8201C28.3925 24.4739 30.1002 24.4807 31.7504 24.84C31.8894 24.8703 32.0215 24.9068 32.0657 25.0619C32.1119 25.2258 32.0152 25.3325 31.9035 25.4325C30.3589 26.8118 28.5804 27.7447 26.5681 28.2308L26.4211 28.2685C26.7316 28.4458 27.0001 28.5935 27.2646 28.7521C27.6701 29.0001 28.0508 29.2873 28.4006 29.6088C28.4983 29.6977 28.5969 29.7894 28.5593 29.9382C28.518 30.1016 28.3859 30.1524 28.2364 30.182C25.8472 30.6519 23.6652 30.1727 21.684 28.7623L21.4903 28.6233C21.4264 28.7013 21.4543 28.7829 21.4543 28.8569C21.4514 29.5541 21.454 30.2515 21.4508 30.9487C21.4508 31.1785 21.3092 31.3103 21.1218 31.2688C20.9343 31.2273 20.9022 31.0881 20.9043 30.9222C20.9069 30.2173 20.9043 29.5122 20.9043 28.8081C20.9043 28.7525 20.8991 28.6967 20.8962 28.6401C20.8106 28.6315 20.7701 28.6914 20.7213 28.7271C19.0923 29.9281 17.2633 30.4542 15.2481 30.3429C14.8601 30.3201 14.4746 30.2646 14.0959 30.1774C13.9628 30.1471 13.8472 30.0948 13.8034 29.954C13.7574 29.8055 13.848 29.71 13.9463 29.62C14.4784 29.1344 15.0744 28.7231 15.7175 28.3978C15.7689 28.3717 15.8205 28.3454 15.8701 28.3168C15.8808 28.3109 15.8854 28.2942 15.9041 28.2644C15.4229 28.1325 14.9452 28.0089 14.4811 27.8409C13.0143 27.3122 11.6618 26.5088 10.4967 25.4737C10.4646 25.4452 10.4319 25.4168 10.4019 25.3862C10.1891 25.1693 10.2511 24.9248 10.5439 24.8532C10.978 24.7517 11.4186 24.6793 11.8624 24.6363C13.1377 24.4978 14.427 24.566 15.6805 24.8384C15.7047 24.8471 15.7307 24.8494 15.756 24.8451C15.7814 24.8407 15.8055 24.8297 15.8255 24.8135C15.7209 24.6978 15.6193 24.5814 15.5132 24.4694C13.591 22.4398 12.3083 20.0629 11.6353 17.3548C11.6234 17.306 11.6151 17.2557 11.5988 17.2077C11.5583 17.0722 11.575 16.95 11.6875 16.8554C11.8 16.7607 11.9122 16.7863 12.0327 16.835C12.8133 17.1515 13.567 17.5308 14.286 17.9692C16.081 19.0609 17.6395 20.4997 18.87 22.201C18.8997 22.2415 18.9307 22.2813 18.9618 22.3206C18.9651 22.325 18.9747 22.3246 18.9942 22.3293C18.8911 21.5883 18.8173 20.8494 18.7742 20.1062C18.7352 19.4289 18.7572 18.7548 18.8006 18.0822C18.8879 16.7626 19.1152 15.456 19.4789 14.1844C19.8264 12.9672 20.2934 11.7871 20.8734 10.6617C20.9389 10.5337 21.0161 10.4248 21.1775 10.4255ZM17.5201 28.5067C17.3243 28.4915 17.1284 28.4224 16.9235 28.4965C16.2082 28.7553 15.5367 29.0944 14.9257 29.5487C14.8671 29.5924 14.7917 29.6255 14.7559 29.706C16.5554 29.9879 18.5677 29.5407 20.0968 28.4639H20.0953C19.24 28.557 18.378 28.5714 17.5201 28.5067ZM25.1827 28.4726C24.2231 28.5803 23.2624 28.5685 22.2963 28.4843H22.2948C23.9061 29.5556 25.6713 29.9626 27.6453 29.7132C26.9555 29.1636 26.1716 28.7432 25.3318 28.4726C25.2827 28.4623 25.2318 28.4623 25.1827 28.4726ZM16.7471 25.7043C15.2267 25.2186 13.6733 25.0337 12.0834 25.1815C11.8003 25.2079 11.5124 25.2283 11.1826 25.3164C12.7139 26.5722 14.4103 27.3817 16.3076 27.762C17.5684 28.015 18.8386 28.0685 20.1176 27.878C20.1059 27.8009 20.0542 27.7961 20.0187 27.7788C18.933 27.2442 17.9117 26.5881 16.9742 25.8235C16.9068 25.7696 16.8296 25.7293 16.7471 25.7043ZM30.9778 25.2666C29.5662 25.0547 28.1277 25.0996 26.7319 25.3984C26.0057 25.5509 25.317 25.7641 24.7635 26.2979C24.5897 26.4656 24.3678 26.5847 24.1658 26.7225C23.5545 27.1402 22.9063 27.4983 22.2451 27.8571L22.2436 27.8577C23.8364 28.0984 25.4073 27.9829 26.9534 27.5431C28.5005 27.1057 29.9377 26.3467 31.1705 25.3159C31.075 25.291 31.0256 25.2742 30.9778 25.2666ZM12.5447 17.6709C12.4767 17.6387 12.3936 17.5626 12.3277 17.6159C12.2619 17.6694 12.3311 17.7641 12.3521 17.8328C13.5272 21.7568 15.8852 24.7532 19.4266 26.8212C19.7948 27.0363 20.1749 27.2305 20.5647 27.4036L20.5662 27.4031C20.53 27.3105 20.5217 27.2764 20.5069 27.2442C20.0477 26.261 19.6779 25.2386 19.4018 24.1894C19.3701 24.0638 19.3212 23.9429 19.2568 23.8305C17.6536 21.0885 15.4161 19.0353 12.5447 17.6709ZM30.0203 17.6144C29.9507 17.5591 29.837 17.6604 29.748 17.703C26.9756 19.0368 24.7942 21.0194 23.2047 23.6518C23.0798 23.8537 22.9857 24.0734 22.9254 24.3029C22.7469 24.9913 22.5218 25.6669 22.2517 26.3249C22.112 26.6686 21.9635 27.0095 21.797 27.4031C21.9204 27.3467 21.9924 27.3154 22.0626 27.2814C23.6974 26.488 25.1753 25.4064 26.4252 24.0886C28.1107 22.3149 29.2899 20.2506 29.9843 17.9076C30.0129 17.8115 30.1104 17.687 30.0203 17.6144ZM21.1811 11.4131C21.0823 11.4123 21.0657 11.5616 21.026 11.6488C19.9078 14.0636 19.3297 16.6929 19.3319 19.3533C19.3311 20.0574 19.3729 20.7609 19.4576 21.4598C19.6773 23.3688 20.1988 25.2309 21.0022 26.977C21.0499 27.0818 21.0641 27.262 21.1897 27.2595C21.2848 27.2594 21.3107 27.0817 21.357 26.979C22.7601 23.8766 23.2876 20.6354 22.9046 17.2489C22.6837 15.3111 22.1536 13.4209 21.3347 11.6503C21.2946 11.5628 21.2797 11.4139 21.1811 11.4131Z" fill="#063A52"/>
<path fill-rule="evenodd" clip-rule="evenodd" d="M21.1765 0C32.6439 0 41.94 9.33531 41.94 20.851C41.9399 32.3666 32.6438 41.702 21.1765 41.702C9.70928 41.702 0.413182 32.3666 0.413086 20.851C0.413086 9.33533 9.70922 3.04747e-05 21.1765 0ZM21.1765 0.521275C9.99591 0.521305 0.932172 9.62322 0.932172 20.851C0.932268 32.0787 9.99597 41.1807 21.1765 41.1807C32.3571 41.1807 41.4208 32.0787 41.4209 20.851C41.4209 9.6232 32.3572 0.521275 21.1765 0.521275Z" fill="#063A52"/>
</svg>
