<svg width="42" height="42" viewBox="0 0 42 42" fill="none" xmlns="http://www.w3.org/2000/svg">
<circle cx="21" cy="21" r="20.7" stroke="#063A52" stroke-width="0.6"/>
<g clip-path="url(#clip0_813_227)">
<path d="M30.3005 13.7797C29.9529 17.9326 28.4858 21.6467 25.8041 24.8638C24.1483 26.843 22.1067 28.4702 19.8015 29.648C19.6315 29.7333 19.4794 29.8498 19.3533 29.9913C18.8291 30.6244 18.143 31.1063 17.3669 31.3867C17.4517 31.4456 17.5562 31.4699 17.6586 31.4545C19.3436 31.5362 20.8861 31.0669 22.3393 30.2571C22.9566 29.9087 23.544 29.5105 24.0955 29.0666C24.196 28.9863 24.2993 28.9116 24.4417 28.9725C24.6483 29.0611 24.6552 29.2978 24.4486 29.4667C23.8651 29.9461 23.2385 30.3715 22.5766 30.7375C21.51 31.3466 20.3368 31.7501 19.1188 31.9266C17.7872 32.1126 16.4296 31.9444 15.185 31.4393C13.9368 30.9698 12.8788 30.1065 12.1739 28.9822C11.159 27.3501 11.0348 25.6307 11.7551 23.8505C11.7833 23.7641 11.8364 23.6878 11.9079 23.631C11.9793 23.5741 12.066 23.5393 12.1572 23.5307C13.2967 23.3409 14.4217 23.0736 15.5242 22.7306C15.742 22.6642 15.8523 22.5714 15.8202 22.3347C15.8083 22.2007 15.8083 22.0659 15.8202 21.9319C15.8174 21.8706 15.8353 21.8102 15.8709 21.7601C15.9065 21.71 15.9579 21.673 16.017 21.655C16.071 21.6377 16.1292 21.6384 16.1827 21.6572C16.2362 21.676 16.282 21.7117 16.313 21.7588C16.4218 21.8848 16.5307 22.0108 16.627 22.1464C16.6415 22.1721 16.661 22.1946 16.6844 22.2126C16.7079 22.2307 16.7347 22.2438 16.7634 22.2513C16.792 22.2588 16.822 22.2605 16.8513 22.2563C16.8806 22.252 16.9088 22.242 16.9342 22.2267C17.4548 22.0052 17.9741 21.7851 18.499 21.5733C18.5354 21.5631 18.5691 21.5453 18.5981 21.5213C18.627 21.4972 18.6505 21.4673 18.667 21.4335C18.6835 21.3998 18.6926 21.363 18.6937 21.3256C18.6948 21.2881 18.6879 21.2508 18.6735 21.2162C18.6428 21.0861 18.6233 20.9532 18.6009 20.8203C18.5827 20.7544 18.588 20.6844 18.616 20.622C18.644 20.5597 18.6929 20.5089 18.7545 20.4783C18.8094 20.4534 18.8712 20.4474 18.9299 20.4615C18.9887 20.4756 19.0409 20.5088 19.0783 20.5559C19.1741 20.6268 19.2629 20.7065 19.3436 20.794C19.5181 21.0168 19.687 20.9961 19.9117 20.8563C20.3221 20.5988 20.7493 20.3621 21.1751 20.1323C21.2142 20.1166 21.2499 20.0934 21.2799 20.064C21.31 20.0346 21.3338 19.9995 21.3501 19.9609C21.3663 19.9222 21.3746 19.8807 21.3745 19.8389C21.3744 19.797 21.366 19.7556 21.3496 19.717C21.3049 19.5412 21.2812 19.3598 21.2477 19.1812C21.2322 19.1231 21.2362 19.0615 21.2591 19.0058C21.282 18.9501 21.3226 18.9033 21.3747 18.8725C21.4256 18.84 21.4863 18.8264 21.5464 18.834C21.6064 18.8416 21.6618 18.8699 21.7028 18.9141C21.8507 19.0345 22.0029 19.1522 22.1397 19.2837C22.1584 19.3062 22.1817 19.3246 22.2081 19.3375C22.2345 19.3505 22.2634 19.3577 22.2928 19.3587C22.3223 19.3598 22.3516 19.3546 22.3789 19.3436C22.4061 19.3326 22.4307 19.3159 22.451 19.2948C22.9564 18.9348 23.4435 18.5514 23.9279 18.1652C23.9517 18.1509 23.9721 18.1318 23.9878 18.1091C24.0036 18.0863 24.0142 18.0606 24.0191 18.0335C24.024 18.0064 24.023 17.9785 24.0162 17.9518C24.0094 17.9251 23.9969 17.9001 23.9796 17.8786C23.9093 17.7543 23.846 17.6263 23.7897 17.4952C23.7597 17.4428 23.7477 17.3822 23.7555 17.3225C23.7633 17.2628 23.7905 17.2073 23.833 17.1643C23.8743 17.1203 23.9295 17.0918 23.9895 17.0835C24.0495 17.0752 24.1106 17.0876 24.1625 17.1186C24.242 17.1546 24.3244 17.1864 24.404 17.2224C24.8032 17.4038 24.8088 17.4093 25.1299 17.1048C25.4509 16.8002 25.7273 16.5123 26.0316 16.2216C26.0527 16.2061 26.0706 16.1867 26.0841 16.1644C26.0976 16.1422 26.1065 16.1175 26.1104 16.0918C26.1143 16.066 26.1131 16.0398 26.1067 16.0146C26.1004 15.9894 26.0891 15.9656 26.0735 15.9447C25.9912 15.7911 25.9214 15.6305 25.8488 15.4727C25.8226 15.4229 25.8137 15.3661 25.8232 15.3108C25.8328 15.2556 25.8604 15.2049 25.9018 15.1667C25.9403 15.1257 25.9913 15.0982 26.047 15.0884C26.1026 15.0787 26.16 15.0872 26.2103 15.1127C26.2466 15.128 26.2843 15.1418 26.3206 15.1584C26.8092 15.3716 26.812 15.3744 27.1582 14.9577C27.383 14.6905 27.5951 14.4137 27.8199 14.1465C27.8437 14.1256 27.8627 14.0998 27.8754 14.0709C27.8881 14.042 27.8943 14.0107 27.8935 13.9791C27.8927 13.9476 27.885 13.9166 27.8708 13.8884C27.8566 13.8601 27.8364 13.8353 27.8115 13.8156C27.704 13.6994 27.6077 13.572 27.5114 13.446C27.4704 13.4017 27.4457 13.3449 27.4411 13.2849C27.4366 13.2249 27.4524 13.1652 27.4862 13.1152C27.5184 13.0642 27.5675 13.0258 27.625 13.0066C27.6825 12.9875 27.745 12.9886 27.8017 13.01C27.8548 13.0252 27.9106 13.0307 27.9651 13.0432C28.5304 13.1692 28.5304 13.1692 28.8557 12.6805C29.1809 12.1919 29.4811 11.7115 29.7631 11.2021C29.8315 11.0802 29.9027 10.9695 30.0716 10.9834C30.2405 10.9972 30.2893 11.1218 30.327 11.2602C30.6725 12.4448 30.8864 13.6633 30.965 14.894C31.2009 18.705 30.1274 22.1534 28.0572 25.3331C27.4309 26.3245 26.707 27.2519 25.8962 28.1017C25.853 28.1474 25.8083 28.1931 25.7566 28.2402C25.7339 28.2656 25.7059 28.2859 25.6746 28.2998C25.6433 28.3138 25.6094 28.3209 25.5752 28.3209C25.5409 28.3209 25.507 28.3138 25.4757 28.2998C25.4444 28.2859 25.4165 28.2656 25.3937 28.2402C25.3666 28.219 25.3444 28.1924 25.3287 28.162C25.3129 28.1316 25.3039 28.0982 25.3023 28.064C25.3007 28.0299 25.3065 27.9958 25.3194 27.9641C25.3323 27.9324 25.3519 27.9038 25.3769 27.8802C25.5375 27.6947 25.7148 27.5231 25.8753 27.3362C28.1605 24.6783 29.7393 21.6841 30.2963 18.1998C30.5085 16.94 30.5155 15.0103 30.3005 13.7797ZM29.7854 12.322C29.6891 12.3428 29.6737 12.4134 29.6458 12.4604C27.9147 15.2218 25.6594 17.6237 23.0052 19.5329C19.9767 21.7194 16.4959 23.2107 12.8147 23.899C12.481 23.9627 12.4796 23.9599 12.6639 24.2506C13.3922 25.4062 14.3104 26.4328 15.3804 27.2878C15.4552 27.3608 15.552 27.4077 15.656 27.4212C15.7601 27.4346 15.8658 27.4141 15.957 27.3625C16.6675 27.0427 17.3906 26.7479 18.1067 26.4392C18.2798 26.3658 18.4362 26.3534 18.5409 26.5375C18.6135 26.6676 18.5409 26.7825 18.4711 26.8891C18.1319 27.3778 17.7941 27.8678 17.4493 28.3509C17.3627 28.4713 17.3613 28.5281 17.5065 28.5959C18.027 28.8357 18.5623 29.0429 19.109 29.2161C19.1541 29.2333 19.2024 29.2406 19.2507 29.2375C19.2989 29.2344 19.3458 29.221 19.3882 29.1981C19.8978 28.9365 20.3989 28.6596 20.8861 28.3592C20.9126 28.3495 20.9366 28.3341 20.9563 28.314C20.9761 28.2939 20.991 28.2697 21.0001 28.2432C21.0092 28.2167 21.0122 28.1885 21.0089 28.1607C21.0056 28.1328 20.9961 28.1061 20.9811 28.0824C20.9099 27.9149 20.8526 27.7418 20.7856 27.5729C20.7298 27.4345 20.6991 27.2961 20.8415 27.1853C20.9838 27.0746 21.1109 27.1341 21.2393 27.2172C21.4054 27.3265 21.5785 27.4262 21.7363 27.5466C21.7853 27.5921 21.8505 27.6166 21.9176 27.6148C21.9848 27.613 22.0485 27.585 22.095 27.5369C22.6744 27.1036 23.2272 26.6385 23.7702 26.1526C23.7924 26.1382 23.8115 26.1194 23.8261 26.0974C23.8407 26.0754 23.8506 26.0507 23.8552 26.0247C23.8598 25.9987 23.8589 25.9721 23.8527 25.9465C23.8465 25.9209 23.835 25.8968 23.819 25.8758C23.7227 25.7124 23.6404 25.5408 23.551 25.3733C23.4882 25.2542 23.4505 25.1352 23.551 25.0217C23.5965 24.9705 23.6587 24.9371 23.7267 24.9272C23.7947 24.9173 23.864 24.9316 23.9224 24.9677C24.1108 25.0521 24.3007 25.1338 24.4808 25.2238C24.5022 25.2389 24.5264 25.2498 24.552 25.2556C24.5777 25.2614 24.6042 25.2622 24.6302 25.2578C24.6561 25.2535 24.681 25.244 24.7032 25.2301C24.7255 25.2162 24.7448 25.198 24.7599 25.1767C25.162 24.7268 25.5598 24.2741 25.9242 23.7924C25.9597 23.7558 25.9811 23.7079 25.9844 23.6573C25.9878 23.6066 25.9728 23.5563 25.9423 23.5155C25.8516 23.3771 25.772 23.229 25.691 23.0836C25.6101 22.9383 25.5389 22.833 25.6547 22.6918C25.7706 22.5506 25.9032 22.577 26.0484 22.624C26.1936 22.6711 26.3095 22.696 26.4351 22.7458C26.4623 22.7614 26.4926 22.771 26.5239 22.774C26.5552 22.777 26.5868 22.7733 26.6165 22.7632C26.6463 22.7531 26.6735 22.7368 26.6964 22.7155C26.7192 22.6941 26.7373 22.6681 26.7492 22.6392C27.0158 22.2087 27.2852 21.7796 27.5239 21.3311C27.5555 21.2863 27.5701 21.2319 27.5652 21.1775C27.5604 21.1231 27.5364 21.0721 27.4974 21.0334C27.376 20.8867 27.2657 20.7317 27.1498 20.5808C27.1077 20.5376 27.0816 20.4814 27.0757 20.4216C27.0699 20.3618 27.0847 20.3017 27.1177 20.2513C27.1498 20.2006 27.1977 20.1616 27.2541 20.1401C27.3105 20.1187 27.3723 20.1159 27.4304 20.1323C27.5784 20.1613 27.7305 20.1766 27.8771 20.2098C27.9052 20.2215 27.9355 20.2267 27.9659 20.2253C27.9963 20.2238 28.026 20.2156 28.0528 20.2012C28.0795 20.1869 28.1027 20.1668 28.1207 20.1424C28.1386 20.118 28.1508 20.0899 28.1563 20.0603C28.3252 19.6256 28.5109 19.1965 28.6742 18.7604C28.8557 18.2773 28.8487 18.2759 28.4411 17.9437L28.349 17.8675C28.3013 17.8378 28.2647 17.7935 28.2448 17.7412C28.2249 17.689 28.2227 17.6318 28.2387 17.5782C28.2549 17.5245 28.2873 17.4769 28.3314 17.4418C28.3755 17.4067 28.4293 17.3857 28.4858 17.3816C28.6206 17.3659 28.7562 17.3572 28.892 17.3553C28.9277 17.3591 28.9638 17.3558 28.9981 17.3454C29.0325 17.335 29.0644 17.3179 29.0919 17.295C29.1194 17.2721 29.142 17.244 29.1582 17.2122C29.1745 17.1805 29.1841 17.1458 29.1865 17.1103C29.219 16.8912 29.2708 16.6753 29.3415 16.4652C29.5244 15.9683 29.4811 15.5502 29.0065 15.229C28.942 15.195 28.8923 15.1388 28.8666 15.0711C28.8409 15.0033 28.841 14.9285 28.8669 14.8608C28.9339 14.6961 29.0804 14.6919 29.2298 14.6975C29.2851 14.6947 29.3406 14.6947 29.3959 14.6975C29.6067 14.7348 29.6835 14.6269 29.6989 14.4386C29.731 14.0371 29.777 13.6357 29.798 13.2342C29.7994 12.9394 29.7854 12.6335 29.7854 12.322ZM12.0902 24.4513C11.8396 25.1772 11.7729 25.9531 11.8961 26.7105C12.1488 28.2568 12.9766 29.4417 14.2595 30.3222C15.7406 31.3383 17.4562 31.1625 18.6847 29.8972C18.8243 29.7588 18.8243 29.6965 18.6219 29.6369C18.1057 29.475 17.6042 29.2703 17.1226 29.0251C16.5642 28.7482 16.5642 28.6998 16.9146 28.1848C17.11 27.9079 17.3059 27.6278 17.5023 27.3445C16.9689 27.5252 16.4456 27.7341 15.9346 27.9702C15.8319 28.0286 15.7131 28.0531 15.5954 28.0402C15.4778 28.0272 15.3673 27.9775 15.2799 27.8982C14.0885 26.9922 13.0666 25.886 12.2605 24.6299C12.2214 24.5676 12.206 24.479 12.0902 24.4513Z" fill="#063A52"/>
<path d="M11.539 14.4733C11.4352 16.183 11.6685 17.8965 12.2259 19.5177C12.5566 20.4827 12.9884 21.4107 13.5143 22.2863C13.5523 22.3466 13.5868 22.409 13.6176 22.4732C13.6371 22.5174 13.6403 22.5669 13.6268 22.6131C13.6133 22.6594 13.5839 22.6995 13.5436 22.7265C13.5087 22.7599 13.4632 22.7803 13.4148 22.7841C13.3664 22.7878 13.3182 22.7749 13.2784 22.7473C13.1995 22.6931 13.1361 22.6197 13.0941 22.5341C12.0829 20.8608 11.4185 19.0042 11.1398 17.073C10.9139 15.4578 10.9611 13.8166 11.2794 12.2169C11.3059 12.0784 11.3394 11.94 11.5027 11.9123C11.6661 11.8846 11.7359 11.9871 11.8099 12.0937C12.1337 12.5643 12.4897 13.0101 12.8345 13.4655C12.9741 13.6441 13.0997 13.7119 13.3105 13.6039C13.4216 13.5611 13.5354 13.5255 13.6511 13.4973C13.7032 13.4753 13.7612 13.4712 13.8159 13.4858C13.8706 13.5003 13.9187 13.5327 13.9527 13.5776C13.9892 13.6204 14.0092 13.6746 14.0092 13.7306C14.0092 13.7866 13.9892 13.8408 13.9527 13.8836L13.9401 13.9029C13.6386 14.3874 13.6372 14.3875 14.0294 14.7958C14.2151 14.991 14.4077 15.1793 14.5878 15.3786C14.6034 15.4037 14.6244 15.425 14.6493 15.441C14.6742 15.457 14.7023 15.4673 14.7317 15.4711C14.7612 15.475 14.7911 15.4723 14.8193 15.4632C14.8475 15.4542 14.8734 15.439 14.8949 15.4188C15.0011 15.3483 15.1126 15.2863 15.2286 15.2333C15.2738 15.2069 15.3265 15.1962 15.3785 15.2027C15.4306 15.2092 15.4789 15.2326 15.5161 15.2693C15.5523 15.3013 15.5774 15.3438 15.5879 15.3907C15.5984 15.4377 15.5938 15.4867 15.5748 15.5309C15.5664 15.553 15.5594 15.5766 15.5524 15.5987C15.3821 16.1123 15.3821 16.1137 15.8107 16.4708C16.0243 16.648 16.2462 16.8169 16.4542 17.001C16.5024 17.0536 16.5691 17.0858 16.6406 17.091C16.7121 17.0961 16.7828 17.0738 16.8381 17.0287C16.9303 16.9664 17.0308 16.9166 17.1285 16.8626C17.1756 16.8251 17.2342 16.8046 17.2946 16.8046C17.355 16.8046 17.4136 16.8251 17.4607 16.8626C17.5076 16.901 17.5392 16.9545 17.5502 17.0137C17.5612 17.073 17.5508 17.1341 17.5207 17.1865C17.5173 17.1937 17.5145 17.2011 17.5124 17.2087C17.3532 17.6793 17.3504 17.6821 17.7636 17.9534C18.1168 18.1846 18.477 18.4033 18.8301 18.6345C18.853 18.6563 18.8805 18.6726 18.9105 18.6824C18.9406 18.6922 18.9725 18.6952 19.0039 18.691C19.0353 18.6869 19.0653 18.6758 19.0918 18.6586C19.1183 18.6414 19.1405 18.6185 19.1568 18.5916C19.2378 18.4947 19.3341 18.4089 19.4234 18.3147C19.5128 18.2206 19.6175 18.1154 19.7752 18.1901C19.933 18.2649 19.9148 18.4033 19.9148 18.539C19.9148 18.6747 19.8897 18.8159 19.8688 18.9626C19.8522 19.0283 19.8616 19.0977 19.8951 19.1567C19.9286 19.2157 19.9836 19.2597 20.0489 19.2796C20.1885 19.3419 20.3364 19.418 20.4676 19.4928C20.5159 19.5141 20.5545 19.5523 20.5764 19.5999C20.5983 19.6476 20.6018 19.7016 20.5863 19.7517C20.5528 19.8721 20.4551 19.8998 20.3434 19.9025C20.2395 19.8996 20.1379 19.8716 20.0475 19.8209C18.1158 18.8718 16.3324 17.6512 14.7525 16.1968C13.7397 15.2666 12.8141 14.2473 11.9872 13.1513C11.9648 13.1222 11.9383 13.0959 11.8797 13.0294C11.8718 13.3478 11.9013 13.6661 11.9676 13.9777C12.0123 14.2975 12.0751 14.6159 12.1295 14.9356C12.1546 15.0741 12.2161 15.1336 12.3766 15.1031C12.5371 15.0727 12.7577 14.9924 12.8764 15.1945C12.995 15.3966 12.808 15.5434 12.6851 15.6555C12.4157 15.8991 12.385 16.1594 12.519 16.4778C12.6125 16.7134 12.6922 16.9542 12.7577 17.199C12.763 17.232 12.7751 17.2636 12.7931 17.2919C12.8111 17.3201 12.8348 17.3445 12.8626 17.3634C12.8904 17.3823 12.9218 17.3954 12.9549 17.4019C12.988 17.4084 13.0221 17.4081 13.0551 17.4011C13.1743 17.3893 13.2945 17.3893 13.4138 17.4011C13.4582 17.3998 13.5019 17.4118 13.5393 17.4356C13.5767 17.4593 13.606 17.4938 13.6233 17.5343C13.6407 17.5748 13.6453 17.6196 13.6365 17.6628C13.6278 17.7059 13.6061 17.7455 13.5743 17.7762C13.4814 17.8845 13.3797 17.985 13.27 18.0766C13.2254 18.1101 13.1949 18.1587 13.1843 18.2132C13.1737 18.2676 13.1839 18.324 13.2128 18.3715C13.4208 18.8256 13.6316 19.2755 13.8787 19.7115C13.9443 19.8264 14.0183 19.8707 14.1467 19.8264C14.2756 19.7856 14.4071 19.7537 14.5403 19.7309C14.5913 19.7165 14.6455 19.7181 14.6954 19.7355C14.7454 19.7528 14.7887 19.7851 14.8195 19.8278C14.8513 19.8689 14.8686 19.9193 14.8686 19.9711C14.8686 20.0229 14.8513 20.0732 14.8195 20.1143C14.8056 20.1431 14.7883 20.17 14.7679 20.1946C14.4231 20.5283 14.4985 20.8411 14.7916 21.1637C14.9703 21.363 15.1127 21.5956 15.2746 21.8101C15.3765 21.9486 15.5078 22.087 15.3151 22.2365C15.1225 22.386 14.9913 22.2448 14.8782 22.0981C14.5263 21.6482 14.2 21.1791 13.901 20.693C12.7338 18.8085 11.9416 16.7198 11.567 14.5397C11.5516 14.53 11.5516 14.501 11.539 14.4733Z" fill="#063A52"/>
<path d="M25.2235 28.5711C25.2245 28.6048 25.2184 28.6383 25.2056 28.6695C25.1928 28.7007 25.1736 28.7288 25.1491 28.7522C25.1247 28.7755 25.0955 28.7935 25.0636 28.805C25.0317 28.8165 24.9977 28.8213 24.9638 28.8189C24.9296 28.8218 24.8952 28.8173 24.8629 28.8057C24.8306 28.7941 24.8012 28.7757 24.7767 28.7517C24.7523 28.7278 24.7334 28.6989 24.7214 28.667C24.7093 28.6351 24.7044 28.6009 24.707 28.567C24.7024 28.531 24.7062 28.4946 24.718 28.4603C24.7299 28.4261 24.7495 28.395 24.7754 28.3694C24.8013 28.3439 24.8328 28.3246 24.8674 28.313C24.902 28.3014 24.9388 28.2978 24.975 28.3026C25.0095 28.3028 25.0435 28.3101 25.075 28.324C25.1065 28.3379 25.1348 28.3581 25.1581 28.3833C25.1814 28.4085 25.1992 28.4381 25.2105 28.4705C25.2217 28.5028 25.2261 28.5371 25.2235 28.5711Z" fill="#063A52"/>
</g>
<defs>
<clipPath id="clip0_813_227">
<rect width="20" height="21" fill="white" transform="translate(11 11)"/>
</clipPath>
</defs>
</svg>
