<svg width="12" height="13" viewBox="0 0 12 13" fill="none" xmlns="http://www.w3.org/2000/svg">
<path d="M7.95178 6.09614C7.95178 6.47356 7.83987 6.8425 7.6302 7.15631C7.42052 7.47013 7.12251 7.71471 6.77383 7.85915C6.42516 8.00358 6.04149 8.04137 5.67134 7.96774C5.30119 7.89411 4.96119 7.71236 4.69432 7.44549C4.42746 7.17861 4.24573 6.83859 4.1721 6.46842C4.09847 6.09826 4.13626 5.71457 4.28068 5.36588C4.42511 5.01719 4.66969 4.71916 4.98348 4.50948C5.29728 4.29979 5.66621 4.18788 6.04361 4.18788C6.5492 4.18945 7.03364 4.391 7.39115 4.74853C7.74866 5.10606 7.95021 5.59052 7.95178 6.09614ZM12.0066 3.47228L12.0066 8.72C12.0066 9.60568 11.6548 10.4551 11.0286 11.0814C10.4023 11.7076 9.55298 12.0595 8.66734 12.0595L3.41987 12.0595C2.53423 12.0595 1.68487 11.7076 1.05862 11.0814C0.432383 10.4551 0.0805652 9.60568 0.0805653 8.72L0.080566 3.47228C0.0805661 2.58659 0.432385 1.73719 1.05863 1.11092C1.68487 0.484648 2.53423 0.132813 3.41987 0.132813L8.66735 0.132814C9.55298 0.132814 10.4023 0.484649 11.0286 1.11092C11.6548 1.73719 12.0066 2.5866 12.0066 3.47228ZM8.90587 6.09614C8.90587 5.53001 8.738 4.9766 8.42349 4.50588C8.10898 4.03516 7.66196 3.66828 7.13895 3.45163C6.61594 3.23498 6.04043 3.1783 5.48521 3.28874C4.92998 3.39919 4.41998 3.67181 4.01968 4.07212C3.61939 4.47243 3.34679 4.98246 3.23635 5.53771C3.1259 6.09296 3.18259 6.6685 3.39922 7.19153C3.61586 7.71457 3.98272 8.16161 4.45342 8.47613C4.92412 8.79066 5.47751 8.95854 6.04361 8.95854C6.80273 8.95854 7.53075 8.65696 8.06753 8.12016C8.60431 7.58336 8.90587 6.85529 8.90587 6.09614ZM9.85995 2.99521C9.85995 2.85368 9.81799 2.71532 9.73936 2.59765C9.66073 2.47997 9.54898 2.38825 9.41822 2.33408C9.28747 2.27992 9.1436 2.26575 9.00479 2.29336C8.86598 2.32097 8.73848 2.38913 8.63841 2.48921C8.53834 2.58928 8.47018 2.71679 8.44257 2.8556C8.41496 2.99442 8.42913 3.1383 8.48329 3.26906C8.53745 3.39982 8.62917 3.51158 8.74684 3.59021C8.86452 3.66884 9.00286 3.71081 9.14439 3.71081C9.33417 3.71081 9.51617 3.63542 9.65037 3.50122C9.78456 3.36701 9.85995 3.185 9.85995 2.99521Z" fill="#063A52"/>
</svg>
