<svg width="37" height="34" viewBox="0 0 37 34" fill="none" xmlns="http://www.w3.org/2000/svg">
<path d="M5.92824 4.24154V4.14897L7.22856 0.424309C7.25025 0.278222 7.33415 0.150938 7.45998 0.0728305C7.58582 -0.0038289 7.73769 -0.0211877 7.87799 0.0265453C8.01685 0.0728305 8.12822 0.17842 8.18174 0.315828C8.23526 0.453236 8.22513 0.606558 8.15426 0.735283L7.392 2.95697C10.5148 0.989851 14.2422 0.210223 17.8928 0.759869C21.5421 1.30807 24.8745 3.14933 27.2813 5.94826C29.6896 8.74707 31.0115 12.3182 31.0071 16.0095C31.0187 19.4462 29.8702 22.7875 27.7454 25.4895C27.5733 25.6949 27.2695 25.7267 27.0598 25.5618C26.8486 25.3969 26.8067 25.0946 26.9643 24.8776C28.9517 22.3493 30.0264 19.2249 30.0148 16.0098C30.0076 12.1899 28.486 8.52749 25.784 5.82703C23.0821 3.12512 19.4196 1.60508 15.5998 1.59767C12.7503 1.59044 9.96297 2.43658 7.59835 4.02765L10.3234 4.68719C10.4579 4.71033 10.5765 4.78989 10.6517 4.90415C10.7255 5.01842 10.7501 5.15872 10.7183 5.2918C10.6865 5.42487 10.5997 5.53769 10.4811 5.60567C10.3625 5.67365 10.2207 5.68957 10.0905 5.64907L6.30958 4.73784H6.22135V4.29091V4.27211C6.22135 4.25331 5.92773 4.24897 5.92773 4.24173L5.92824 4.24154ZM36.3695 31.2388L36.3883 31.2098V31.0826V31.0536V31.0276V31.0088V30.9712V30.7817L36.3666 30.7557L33.5186 27.8845C33.3204 27.6951 33.0066 27.7023 32.8171 27.9005C32.6276 28.1001 32.6348 28.4139 32.833 28.6034L34.7481 30.4259L15.6004 30.4244C11.7791 30.4172 8.11666 28.897 5.41472 26.1951C2.71281 23.4932 1.19277 19.8307 1.18536 16.0094C1.17379 12.794 2.24992 9.66979 4.2373 7.14151C4.39495 6.92454 4.35301 6.62226 4.14183 6.45734C3.93066 6.29245 3.62692 6.32426 3.45478 6.52966C1.07542 9.58015 -0.0701202 13.4132 0.245175 17.2678C0.561939 21.1239 2.31646 24.7183 5.1614 27.3406C8.00505 29.9615 11.7324 31.4167 15.6 31.4167H34.658L32.7329 33.0974C32.6186 33.1784 32.5419 33.3057 32.526 33.446C32.5087 33.5848 32.5535 33.7251 32.6461 33.8322C32.7387 33.9378 32.8732 33.9985 33.0135 34C33.1552 34.0014 33.2897 33.9421 33.3852 33.838L36.3069 31.2937L36.3695 31.2388ZM4.55857 16.0095C4.56001 13.0819 5.72292 10.276 7.7942 8.20615C9.864 6.13779 12.6715 4.97485 15.5975 4.97485C18.525 4.97485 21.3324 6.13775 23.4023 8.20759C25.4721 10.2774 26.6351 13.0849 26.6351 16.0124C26.6351 18.9385 25.4736 21.7458 23.4038 23.8172C21.334 25.887 18.5279 27.0499 15.6004 27.0514C12.6729 27.0485 9.867 25.8841 7.79564 23.8143C5.72584 21.7445 4.56146 18.9369 4.55857 16.0095ZM5.55081 16.0095C5.55081 18.6737 6.60959 21.2282 8.49281 23.1129C10.3775 24.9962 12.9317 26.0549 15.5963 26.0549C18.2606 26.0564 20.815 24.9976 22.6998 23.1144C24.583 21.2312 25.6418 18.6769 25.6432 16.0124C25.6432 13.3481 24.5859 10.7922 22.7027 8.90742C20.8194 7.02421 18.2652 5.96398 15.6007 5.96398C12.9364 5.96543 10.3819 7.02421 8.49866 8.90742C6.614 10.7906 5.5537 13.3449 5.55081 16.0095ZM14.034 19.8596C14.1236 19.9754 14.2596 20.0462 14.4042 20.0535C14.5474 20.0491 14.6834 19.9855 14.7745 19.8756L21.8214 11.5109C21.979 11.2997 21.9457 11.0018 21.7432 10.8325C21.5407 10.6633 21.2428 10.6807 21.062 10.873L14.4417 18.7645L11.3276 14.7462C11.1598 14.5292 10.8488 14.4902 10.6319 14.658C10.4149 14.8257 10.3744 15.1367 10.5422 15.3537L14.034 19.8596Z" fill="black" fill-opacity="0.4"/>
</svg>
