<svg width="32" height="36" viewBox="0 0 32 36" fill="none" xmlns="http://www.w3.org/2000/svg">
<path d="M27.5981 5.71761C24.9329 3.37595 21.2585 2.55451 17.8504 3.53995C14.4421 4.52538 11.771 7.18171 10.7676 10.5841C9.76297 13.9866 10.5622 17.6669 12.8891 20.3439L10.8548 22.6575L10.4795 22.3281L10.481 22.3295C10.3584 22.2217 10.1722 22.2335 10.0643 22.3561L8.83514 23.7537L1.1173 32.537C0.52339 33.1722 0.554404 34.168 1.18674 34.7648L2.1825 35.6409C2.45139 35.8758 2.79562 36.0029 3.15167 35.9999C3.63182 35.997 4.08688 35.7857 4.40156 35.4238L12.1194 26.6406L13.3486 25.2429H13.3471C13.3988 25.1839 13.4254 25.107 13.421 25.0287C13.4151 24.9504 13.3796 24.8766 13.3205 24.8248L12.9467 24.4954L14.9826 22.1788C17.9374 24.1438 21.6883 24.4659 24.9342 23.0328C28.18 21.6012 30.4716 18.6111 31.0106 15.1051C31.5498 11.5977 30.263 8.05935 27.5978 5.71784L27.5981 5.71761ZM12.709 25.0745L11.8698 26.0289L9.47345 23.9236L10.3126 22.9692L12.709 25.0745ZM3.9567 35.0336C3.61838 35.4591 3.00084 35.5315 2.57236 35.1976L1.5766 34.3215C1.18953 33.9403 1.18212 33.3169 1.56035 32.9268L9.08341 24.3668L11.4797 26.472L3.9567 35.0336ZM12.5036 24.1052L11.301 23.0473L13.2925 20.7825C13.3294 20.8209 13.3679 20.8564 13.4048 20.8933C13.4403 20.9273 13.4742 20.9627 13.5097 20.9967C13.6294 21.1119 13.7505 21.2257 13.8746 21.335C14.0504 21.4887 14.2366 21.6379 14.4257 21.7827C14.4493 21.8004 14.4715 21.8211 14.4951 21.8388L12.5036 24.1052ZM28.0989 19.9981C26.5077 21.8183 24.2975 22.9839 21.8969 23.2706C19.4976 23.5572 17.0747 22.944 15.0993 21.5509C14.5186 21.1402 13.9809 20.6689 13.4992 20.1444C11.8283 18.3154 10.9108 15.9235 10.9315 13.4458C10.9522 10.9697 11.9095 8.59263 13.6115 6.79159C15.3135 4.99213 17.633 3.90329 20.1047 3.74225C20.3219 3.72895 20.5375 3.72157 20.7518 3.72157C23.2781 3.726 25.7056 4.70405 27.5271 6.45328C29.3486 8.20251 30.4258 10.5871 30.5321 13.1117C30.6385 15.6351 29.7669 18.1025 28.0989 19.9981Z" fill="black" fill-opacity="0.4"/>
<path d="M7.20253 5.53872L9.45407 7.10917C9.63432 7.23475 9.85003 7.30271 10.0687 7.30271C10.1337 7.30271 10.1972 7.2968 10.2607 7.28646C10.5429 7.23623 10.7926 7.07667 10.9551 6.84176L11.0925 6.64379H11.094C11.4338 6.15623 11.3141 5.48404 10.8266 5.14274L8.57502 3.57229C8.08598 3.23249 7.41378 3.35216 7.07396 3.8397L6.93656 4.03767H6.93508C6.59528 4.52522 6.71499 5.19742 7.20253 5.53872ZM7.4197 4.37602L7.5571 4.17805H7.55858C7.63245 4.07168 7.74473 3.99929 7.87179 3.97713C7.99884 3.95349 8.13033 3.98304 8.2367 4.05691L10.4883 5.62736C10.7084 5.78101 10.763 6.08533 10.6094 6.30549L10.472 6.50346H10.4705C10.3967 6.60984 10.2844 6.68223 10.1573 6.70439C10.0303 6.72655 9.89877 6.69848 9.7924 6.62461L7.54085 5.05416C7.32072 4.90051 7.26605 4.59618 7.42118 4.37602H7.4197Z" fill="black" fill-opacity="0.4"/>
<path d="M11.1173 4.11241C11.2178 4.37982 11.4217 4.59697 11.6817 4.7152C11.9432 4.83191 12.2402 4.84226 12.5076 4.74032L12.7336 4.65463H12.7321C13.2891 4.44484 13.5698 3.82287 13.36 3.26587L12.3909 0.696678C12.1796 0.14116 11.5576 -0.139511 11.0006 0.0687705L10.7746 0.154458H10.7761C10.2191 0.364249 9.9384 0.986222 10.1482 1.54322L11.1173 4.11241ZM10.7125 0.96262C10.7657 0.844428 10.8632 0.752829 10.9844 0.707031L11.2104 0.621344V0.622821C11.3301 0.577023 11.4645 0.581456 11.5827 0.63464C11.7009 0.687828 11.7925 0.785335 11.8383 0.90648L12.8075 3.4742C12.8533 3.59535 12.8489 3.72979 12.7957 3.8465C12.7425 3.9647 12.645 4.05629 12.5238 4.10209L12.2993 4.18778H12.2978C12.0466 4.28233 11.7659 4.15528 11.6699 3.90412L10.7007 1.33493C10.6549 1.21378 10.6593 1.08081 10.7125 0.96262Z" fill="black" fill-opacity="0.4"/>
<path d="M5.82997 10.1259H8.57645C9.17036 10.1244 9.65349 9.64277 9.65349 9.04735V8.80654C9.65349 8.21116 9.1704 7.7295 8.57645 7.72803H5.82997C5.23459 7.7295 4.75293 8.21112 4.75293 8.80654V9.04735C4.75293 9.64273 5.23455 10.1244 5.82997 10.1259ZM5.34389 8.80654C5.34389 8.53766 5.56107 8.32047 5.82997 8.31899H8.57645C8.84534 8.32047 9.06253 8.53764 9.06253 8.80654V9.04736C9.06253 9.31625 8.84535 9.53491 8.57645 9.53491H5.82997C5.56108 9.53491 5.34389 9.31626 5.34389 9.04736V8.80654Z" fill="black" fill-opacity="0.4"/>
<path d="M26.1943 7.3141C24.547 5.86479 22.3914 5.13053 20.2019 5.27088C18.0124 5.41123 15.9678 6.41732 14.52 8.06462C13.0721 9.7134 12.3379 11.8691 12.4797 14.0585C12.6215 16.248 13.6277 18.2911 15.2749 19.7393C15.566 19.9934 15.8718 20.2268 16.1939 20.441H16.1954V20.4425C17.5428 21.3305 19.1221 21.8017 20.737 21.8017C22.3518 21.8003 23.9296 21.326 25.2771 20.4351H25.2785C25.8976 20.0289 26.459 19.5413 26.9465 18.9858H26.948C28.3929 17.3371 29.1257 15.1814 28.9839 12.9934C28.8435 10.8054 27.8402 8.76341 26.1943 7.3141ZM16.6459 20.03C16.6459 19.9147 16.6533 19.801 16.6651 19.6887C16.6696 19.6503 16.6755 19.6119 16.6799 19.5735C16.6903 19.4996 16.7021 19.4257 16.7168 19.3518C16.7257 19.3075 16.7346 19.2617 16.7464 19.2174C16.7626 19.1494 16.7819 19.083 16.8025 19.0165C16.8158 18.9736 16.8277 18.9308 16.8409 18.8894C16.8749 18.7919 16.9133 18.6959 16.9562 18.6013C16.9754 18.557 16.999 18.5156 17.0197 18.4728C17.0478 18.4152 17.0773 18.359 17.1084 18.3029C17.1335 18.2586 17.1601 18.2157 17.1867 18.1729C17.2206 18.1182 17.2576 18.0636 17.2945 18.0104C17.3211 17.972 17.3462 17.935 17.3743 17.8981C17.4275 17.8272 17.4836 17.7592 17.5427 17.6927C17.5575 17.675 17.5708 17.6573 17.587 17.641C17.6639 17.5568 17.7436 17.4756 17.8279 17.3987C17.85 17.378 17.8722 17.3603 17.8943 17.3396C17.9593 17.2805 18.0273 17.2244 18.0967 17.1697C18.1248 17.149 18.1514 17.1269 18.1795 17.1062C18.2504 17.0545 18.3228 17.0043 18.3967 16.957C18.4233 16.9407 18.4484 16.923 18.475 16.9068C18.5725 16.8477 18.6715 16.7915 18.7734 16.7398C18.7778 16.7369 18.7823 16.7354 18.7867 16.7324C18.8945 16.6792 19.0053 16.6305 19.1176 16.5862C19.1487 16.5743 19.1826 16.5625 19.2137 16.5507C19.2964 16.5197 19.3806 16.4916 19.4663 16.465C19.5032 16.4547 19.5402 16.4443 19.5771 16.434C19.6628 16.4104 19.75 16.3897 19.8386 16.3719C19.8755 16.3646 19.9125 16.3557 19.9494 16.3498C20.0484 16.3321 20.1503 16.3188 20.2523 16.3069C20.2877 16.3025 20.3217 16.2996 20.3572 16.2966C20.465 16.2877 20.5743 16.2818 20.6837 16.2818C20.7354 16.2818 20.7856 16.2833 20.8373 16.2848C20.9156 16.2863 20.9925 16.2892 21.0693 16.2951C21.0855 16.2966 21.1003 16.2981 21.1166 16.2996C21.1491 16.3025 21.183 16.3055 21.2155 16.3084C21.3116 16.3188 21.4076 16.3321 21.5022 16.3483C21.5258 16.3527 21.5479 16.3557 21.5716 16.3601H21.5731C23.1007 16.6187 24.3358 17.7474 24.7318 19.2455C24.7377 19.2676 24.7421 19.2913 24.7465 19.3134C24.7657 19.405 24.7805 19.4981 24.7938 19.5927C24.7968 19.6207 24.8027 19.6473 24.8042 19.6754C24.816 19.7921 24.8234 19.9088 24.8234 20.0255C23.6001 20.7982 22.1818 21.2089 20.7352 21.2104C19.2874 21.2104 17.8705 20.8012 16.6459 20.03ZM21.9659 15.8386C21.9216 15.8268 21.8758 15.8194 21.83 15.8091C21.7827 15.7987 21.7369 15.7884 21.6896 15.7795C21.6187 15.7662 21.5463 15.7559 21.4754 15.7455C21.4296 15.7396 21.3853 15.7308 21.3395 15.7263C21.307 15.7219 21.2745 15.719 21.242 15.716C21.1932 15.7116 21.1445 15.7071 21.0957 15.7042C21.0588 15.7012 21.0233 15.6968 20.9864 15.6953C20.9361 15.6924 20.8874 15.6938 20.8372 15.6924C20.8017 15.6924 20.7692 15.6879 20.7337 15.6879C20.7145 15.6879 20.6968 15.6909 20.6791 15.6909H20.6495C20.6288 15.6909 20.6067 15.6924 20.586 15.6938C20.49 15.6968 20.3954 15.7012 20.3009 15.7086C20.2905 15.7101 20.2802 15.7101 20.2698 15.7116C20.2329 15.7145 20.1974 15.7219 20.162 15.7249C20.0866 15.7337 20.0128 15.7411 19.9389 15.7529C19.9167 15.7559 19.8946 15.7603 19.8724 15.7648C19.8414 15.7707 19.8118 15.7766 19.7823 15.7825C19.7202 15.7943 19.6582 15.8061 19.5976 15.8209C19.5548 15.8312 19.5134 15.8416 19.472 15.8534C19.4454 15.8608 19.4203 15.8667 19.3937 15.8741C19.3731 15.88 19.3539 15.8844 19.3332 15.8903L19.3302 15.8889C18.4275 15.3215 18.005 14.2297 18.2901 13.2029C18.5753 12.1762 19.5016 11.4581 20.5668 11.4389C21.632 11.4197 22.5834 12.1023 22.907 13.1172C23.2305 14.1322 22.8479 15.2403 21.9659 15.8401L21.9659 15.8386ZM26.503 18.5954C26.1676 18.9751 25.7968 19.3209 25.3949 19.6296C25.3934 19.6075 25.3875 19.5868 25.3846 19.5646C25.3727 19.4583 25.3565 19.3534 25.3358 19.2485C25.3314 19.2248 25.3255 19.2012 25.3196 19.1761C25.2959 19.0623 25.2664 18.95 25.2324 18.8392L25.225 18.8141H25.2265C24.8172 17.5539 23.8643 16.5434 22.6292 16.0603C23.2556 15.4974 23.6132 14.6937 23.6117 13.8501C23.6146 12.8248 23.0931 11.8689 22.2303 11.3164C21.3676 10.7624 20.2817 10.6884 19.3524 11.1199C18.4216 11.5498 17.776 12.4259 17.6401 13.4423C17.5027 14.4573 17.8942 15.4723 18.6787 16.1341C18.6491 16.1474 18.6181 16.1607 18.5886 16.1755C18.4807 16.2272 18.3773 16.2819 18.2753 16.341C18.265 16.3469 18.2561 16.3513 18.2458 16.3572H18.2443C18.0124 16.4917 17.7937 16.6468 17.5883 16.8211C17.5721 16.8359 17.5558 16.8507 17.5396 16.8654C17.4598 16.9349 17.3815 17.0073 17.3076 17.0811C17.284 17.1048 17.2604 17.1299 17.2367 17.155C17.1717 17.223 17.1097 17.2924 17.0506 17.3633C17.0255 17.3929 17.0003 17.4239 16.9752 17.4549C16.9191 17.5244 16.8674 17.5968 16.8157 17.6692C16.7935 17.7017 16.7684 17.7327 16.7477 17.7667C16.6886 17.8553 16.6339 17.9454 16.5822 18.0385C16.5615 18.0754 16.5423 18.1109 16.5231 18.1478C16.4773 18.235 16.4345 18.3236 16.3946 18.4123C16.3739 18.461 16.3547 18.5113 16.3355 18.5615C16.3104 18.628 16.2853 18.693 16.2616 18.7609C16.2439 18.8141 16.2277 18.8688 16.2129 18.9235C16.1937 18.9914 16.1759 19.0609 16.1597 19.1288C16.1479 19.182 16.1361 19.2337 16.1257 19.2869C16.1109 19.3681 16.0991 19.4494 16.0888 19.5307C16.0844 19.5646 16.077 19.5971 16.074 19.6311C15.9322 19.5218 15.7963 19.411 15.6648 19.2958V19.2943C14.1357 17.9498 13.202 16.0529 13.0719 14.0201C12.9404 11.9872 13.6215 9.98686 14.966 8.45623C16.3104 6.92712 18.2088 5.99343 20.2402 5.8634C20.4101 5.85306 20.5785 5.84715 20.7469 5.84715C22.7251 5.8501 24.6266 6.61688 26.0521 7.98639C27.4793 9.35593 28.3229 11.2234 28.4071 13.2C28.4898 15.1768 27.809 17.1091 26.503 18.5954Z" fill="black" fill-opacity="0.4"/>
<path d="M22.1338 6.81683L20.129 9.3535L19.0106 8.69163C18.9426 8.65174 18.8614 8.63992 18.786 8.65912C18.7107 8.67833 18.6457 8.72709 18.6058 8.79505C18.5216 8.9354 18.5688 9.11564 18.7092 9.19985L20.0522 9.9947V9.99322C20.1792 10.07 20.3417 10.039 20.4333 9.92231L22.5977 7.18322C22.6997 7.05469 22.6775 6.87001 22.549 6.76805C22.4219 6.66759 22.2358 6.68829 22.1338 6.81683Z" fill="black" fill-opacity="0.4"/>
</svg>
