<svg width="36" height="36" viewBox="0 0 36 36" fill="none" xmlns="http://www.w3.org/2000/svg">
<path fill-rule="evenodd" clip-rule="evenodd" d="M18.0024 4.76239e-06C17.9209 -0.00031453 17.8401 0.0154243 17.7647 0.0463227C17.6893 0.0772211 17.6207 0.122674 17.5628 0.180086C17.505 0.237498 17.459 0.305744 17.4275 0.380929C17.396 0.456114 17.3796 0.536764 17.3793 0.618275V5.83715C17.379 5.91907 17.3949 6.00025 17.4261 6.07599C17.4573 6.15174 17.5032 6.22055 17.5611 6.27848C17.619 6.33641 17.6878 6.38229 17.7636 6.41349C17.8393 6.44469 17.9205 6.46059 18.0024 6.46027C18.0839 6.45995 18.1646 6.44358 18.2398 6.4121C18.315 6.38061 18.3832 6.33462 18.4406 6.27676C18.498 6.2189 18.5435 6.1503 18.5744 6.07487C18.6053 5.99944 18.621 5.91866 18.6207 5.83715V0.618275C18.6201 0.454497 18.5547 0.297609 18.4389 0.181799C18.3231 0.0659885 18.1662 0.000644004 18.0024 4.76239e-06ZM30.2465 5.08796C30.0967 5.09863 29.9559 5.16323 29.8501 5.2698L26.1575 8.96242C26.0418 9.07871 25.9769 9.23605 25.9769 9.40005C25.9769 9.56405 26.0418 9.72138 26.1575 9.83768C26.2151 9.89567 26.2837 9.94168 26.3592 9.97308C26.4347 10.0045 26.5157 10.0206 26.5975 10.0206C26.6793 10.0206 26.7603 10.0045 26.8358 9.97308C26.9113 9.94168 26.9799 9.89567 27.0376 9.83768L30.7302 6.1487C30.788 6.09104 30.8339 6.02255 30.8652 5.94714C30.8964 5.87173 30.9126 5.79089 30.9126 5.70925C30.9126 5.6276 30.8964 5.54676 30.8652 5.47136C30.8339 5.39595 30.788 5.32745 30.7302 5.2698C30.6674 5.20652 30.5916 5.15753 30.5082 5.12615C30.4247 5.09477 30.3354 5.08175 30.2465 5.08796ZM5.66743 5.09031C5.51883 5.10089 5.37898 5.16457 5.27344 5.26973C5.21563 5.32738 5.16977 5.39588 5.13848 5.47128C5.10719 5.54669 5.09108 5.62753 5.09108 5.70918C5.09108 5.79082 5.10719 5.87166 5.13848 5.94707C5.16977 6.02248 5.21563 6.09097 5.27344 6.14863L8.96242 9.83761C9.02008 9.89542 9.08857 9.94128 9.16398 9.97257C9.23939 10.0039 9.32023 10.02 9.40187 10.02C9.48352 10.02 9.56436 10.0039 9.63977 9.97257C9.71518 9.94128 9.78367 9.89542 9.84133 9.83761C9.95696 9.72131 10.0219 9.56398 10.0219 9.39998C10.0219 9.23598 9.95696 9.07864 9.84133 8.96235L6.14871 5.26981C6.08594 5.20729 6.01051 5.15893 5.9275 5.12798C5.84449 5.09703 5.75581 5.08414 5.66743 5.09031ZM20.3567 8.03252C20.2667 8.037 20.1788 8.06101 20.099 8.10287C20.0193 8.14474 19.9496 8.20347 19.8948 8.27497L11.5688 18.9831C11.4972 19.0749 11.4529 19.1849 11.4408 19.3007C11.4288 19.4165 11.4496 19.5334 11.5008 19.6379C11.552 19.7425 11.6316 19.8305 11.7304 19.892C11.8293 19.9535 11.9434 19.9859 12.0598 19.9856H15.3439L14.4322 27.4776C14.4154 27.6129 14.4437 27.75 14.5126 27.8676C14.5815 27.9853 14.6872 28.077 14.8134 28.1286C14.9396 28.1802 15.0793 28.1888 15.2109 28.1531C15.3425 28.1174 15.4587 28.0393 15.5415 27.9309L23.8662 17.2192C23.9381 17.1275 23.9827 17.0174 23.995 16.9016C24.0072 16.7857 23.9867 16.6688 23.9356 16.564C23.8845 16.4593 23.8049 16.3711 23.7061 16.3095C23.6072 16.2479 23.493 16.2153 23.3765 16.2155H20.0912L20.998 8.72845C21.0089 8.6391 21.0003 8.54843 20.9728 8.46273C20.9452 8.37704 20.8993 8.29836 20.8383 8.23216C20.7773 8.16597 20.7026 8.11383 20.6195 8.07937C20.5363 8.04491 20.4466 8.02887 20.3567 8.03252ZM19.496 10.8087L18.7759 16.7646C18.7658 16.8514 18.7742 16.9393 18.8005 17.0227C18.8267 17.106 18.8703 17.1829 18.9283 17.2482C18.9863 17.3136 19.0575 17.3659 19.1371 17.4019C19.2168 17.4378 19.3031 17.4565 19.3905 17.4568H22.1121L15.9355 25.4022L16.6592 19.4414C16.67 19.3539 16.6621 19.2651 16.636 19.181C16.6098 19.0968 16.5661 19.0191 16.5076 18.9532C16.4491 18.8872 16.3772 18.8345 16.2968 18.7985C16.2163 18.7625 16.1291 18.744 16.0409 18.7443H13.3279L19.496 10.8087ZM0.623121 17.3793C0.541611 17.379 0.460835 17.3947 0.385407 17.4256C0.309979 17.4565 0.241375 17.502 0.183514 17.5594C0.125652 17.6168 0.0796646 17.685 0.048178 17.7602C0.0166915 17.8354 0.000322194 17.9161 4.73604e-06 17.9976C-0.000315262 18.0795 0.0155837 18.1607 0.0467849 18.2364C0.0779862 18.3122 0.123873 18.381 0.181798 18.4389C0.239724 18.4968 0.308543 18.5427 0.384287 18.5739C0.460032 18.6051 0.541203 18.621 0.623121 18.6207H5.842C5.92351 18.6204 6.00416 18.604 6.07934 18.5725C6.15453 18.541 6.22277 18.495 6.28018 18.4372C6.33759 18.3793 6.38305 18.3107 6.41395 18.2353C6.44484 18.1599 6.46058 18.0791 6.46026 17.9976C6.45963 17.8338 6.39428 17.6769 6.27848 17.5611C6.16267 17.4453 6.00578 17.38 5.842 17.3793H0.623121ZM30.158 17.3793C29.994 17.3796 29.8368 17.4448 29.7207 17.5607C29.6047 17.6765 29.5392 17.8336 29.5385 17.9976C29.5382 18.0792 29.554 18.1601 29.585 18.2356C29.6159 18.3111 29.6615 18.3797 29.719 18.4376C29.7766 18.4955 29.845 18.5415 29.9203 18.5729C29.9956 18.6043 30.0764 18.6205 30.158 18.6207H35.3805C35.4621 18.6205 35.5429 18.6043 35.6182 18.5729C35.6936 18.5414 35.7619 18.4955 35.8195 18.4376C35.877 18.3797 35.9226 18.3111 35.9536 18.2356C35.9845 18.1601 36.0003 18.0792 36 17.9976C35.9994 17.8336 35.9338 17.6765 35.8178 17.5607C35.7017 17.4448 35.5445 17.3796 35.3805 17.3793H30.158ZM9.35762 25.9768C9.20843 25.9875 9.06809 26.0516 8.96242 26.1575L5.27344 29.8464C5.21545 29.9041 5.16944 29.9727 5.13804 30.0482C5.10664 30.1237 5.09047 30.2047 5.09047 30.2865C5.09047 30.3683 5.10664 30.4493 5.13804 30.5248C5.16944 30.6003 5.21545 30.6689 5.27344 30.7266C5.38974 30.8422 5.54707 30.9071 5.71107 30.9071C5.87507 30.9071 6.03241 30.8422 6.14871 30.7266L9.84133 27.0376C9.89931 26.9799 9.94533 26.9113 9.97673 26.8358C10.0081 26.7603 10.0243 26.6793 10.0243 26.5975C10.0243 26.5157 10.0081 26.4348 9.97673 26.3592C9.94533 26.2837 9.89931 26.2151 9.84133 26.1575C9.77839 26.0944 9.70261 26.0456 9.61915 26.0145C9.53569 25.9833 9.44649 25.9705 9.35762 25.9768ZM26.5527 25.9768C26.4035 25.9875 26.2631 26.0516 26.1575 26.1575C26.0995 26.2151 26.0535 26.2837 26.0221 26.3592C25.9907 26.4348 25.9745 26.5157 25.9745 26.5975C25.9745 26.6793 25.9907 26.7603 26.0221 26.8358C26.0535 26.9113 26.0995 26.9799 26.1575 27.0376L29.8501 30.7266C29.9078 30.7846 29.9763 30.8306 30.0518 30.862C30.1274 30.8934 30.2084 30.9095 30.2901 30.9095C30.3719 30.9095 30.4529 30.8934 30.5284 30.862C30.6039 30.8306 30.6725 30.7846 30.7302 30.7266C30.7882 30.6689 30.8342 30.6003 30.8656 30.5248C30.897 30.4493 30.9132 30.3683 30.9132 30.2865C30.9132 30.2047 30.897 30.1237 30.8656 30.0482C30.8342 29.9727 30.7882 29.9041 30.7302 29.8464L27.0376 26.1575C26.9745 26.0942 26.8985 26.0454 26.8148 26.0142C26.7312 25.983 26.6417 25.9703 26.5527 25.9768ZM18.0024 29.5397C17.9209 29.5394 17.8401 29.5552 17.7647 29.5861C17.6893 29.6169 17.6207 29.6624 17.5628 29.7198C17.505 29.7772 17.459 29.8455 17.4275 29.9207C17.396 29.9958 17.3796 30.0765 17.3793 30.158V35.3769C17.379 35.4588 17.3949 35.54 17.4261 35.6157C17.4573 35.6915 17.5032 35.7603 17.5611 35.8182C17.619 35.8761 17.6878 35.922 17.7636 35.9532C17.8393 35.9844 17.9205 36.0003 18.0024 36C18.0839 35.9997 18.1646 35.9833 18.2398 35.9518C18.315 35.9203 18.3832 35.8743 18.4406 35.8165C18.498 35.7586 18.5435 35.69 18.5744 35.6146C18.6053 35.5392 18.621 35.4584 18.6207 35.3769V30.158C18.62 29.9942 18.5547 29.8373 18.4389 29.7215C18.3231 29.6057 18.1662 29.5404 18.0024 29.5397Z" fill="black" fill-opacity="0.4"/>
</svg>
