<svg width="8" height="9" viewBox="0 0 8 9" fill="none" xmlns="http://www.w3.org/2000/svg">
<g clip-path="url(#clip0_609_3237)">
<path d="M6.57955 2.8415C6.54938 2.89025 6.51555 2.93665 6.47833 2.98028C4.67917 4.77578 2.87931 6.57157 1.07877 8.36763C0.895906 8.55044 0.930062 8.5438 0.745536 8.36222C0.524355 8.14243 0.309006 7.91598 0.0790778 7.70366C-0.0313044 7.60145 -0.0292217 7.54037 0.0790778 7.434C1.57 5.954 3.05787 4.47205 4.54268 2.98817L5.56986 1.96355C5.59111 1.94195 5.61152 1.91826 5.6565 1.8655H0.889659C0.636405 1.8655 0.635987 1.8655 0.635987 1.60581C0.635987 1.29917 0.640569 0.99295 0.633905 0.686728C0.631406 0.55543 0.66931 0.503493 0.810516 0.503909C3.14784 0.507233 5.48517 0.507233 7.82249 0.503909C7.96078 0.503909 7.99994 0.548367 7.99994 0.682988C7.9966 3.00978 7.9966 5.33657 7.99994 7.66336C7.99994 7.80421 7.95828 7.85615 7.81333 7.85241C7.49093 7.8441 7.16811 7.85033 6.8453 7.8495C6.63703 7.8495 6.63453 7.84618 6.63453 7.64175C6.63453 6.11521 6.63453 4.58853 6.63453 3.06171V2.87848L6.57955 2.8415Z" fill="#171717"/>
</g>
<defs>
<clipPath id="clip0_609_3237">
<rect width="8" height="8" fill="white" transform="translate(0 0.5)"/>
</clipPath>
</defs>
</svg>
