<svg width="13" height="10" viewBox="0 0 13 10" fill="none" xmlns="http://www.w3.org/2000/svg">
<path d="M9.91452 9.31836L2.94223 9.31836C1.57427 9.31836 0.465332 8.20936 0.465332 6.84135L0.465333 3.35577C0.465333 1.98775 1.57428 0.878759 2.94223 0.878759L9.91452 0.87876C11.2825 0.87876 12.3914 1.98776 12.3914 3.35577L12.3914 6.84135C12.3914 8.20937 11.2825 9.31836 9.91452 9.31836ZM8.23941 4.92897L4.97825 3.37352C4.89135 3.33207 4.79097 3.39543 4.79097 3.4917L4.79097 6.69983C4.79097 6.79747 4.89399 6.86075 4.98107 6.81661L8.24223 5.16394C8.33919 5.11481 8.33751 4.97575 8.23941 4.92897Z" fill="#063A52"/>
</svg>
